<mxfile host="Electron" modified="2023-11-28T19:35:16.869Z" agent="Mozilla/5.0 (X11; Linux x86_64) AppleWebKit/537.36 (KHTML, like Gecko) draw.io/22.1.2 Chrome/114.0.5735.289 Electron/25.9.4 Safari/537.36" etag="VyykGSRe-XmrpQyN9AZW" version="22.1.2" type="device">
  <diagram name="PÃ¡gina-1" id="d8xGiV5dhhoQ4SAJc9w6">
    <mxGraphModel dx="654" dy="401" grid="1" gridSize="10" guides="1" tooltips="1" connect="1" arrows="1" fold="1" page="1" pageScale="1" pageWidth="827" pageHeight="1169" math="0" shadow="0">
      <root>
        <mxCell id="0" />
        <mxCell id="1" parent="0" />
        <mxCell id="_7XjOBUv1tHCZMJbMvrB-359" value="Rows Sample" style="rounded=0;whiteSpace=wrap;html=1;horizontal=0;fillColor=#f5f5f5;fontColor=#333333;strokeColor=#666666;fontSize=9;" parent="1" vertex="1">
          <mxGeometry x="46" y="102" width="25" height="180" as="geometry" />
        </mxCell>
        <mxCell id="_7XjOBUv1tHCZMJbMvrB-358" value="Rows Sample" style="rounded=0;whiteSpace=wrap;html=1;horizontal=0;fillColor=#f5f5f5;fontColor=#333333;strokeColor=#666666;fontSize=9;" parent="1" vertex="1">
          <mxGeometry x="42" y="106" width="25" height="180" as="geometry" />
        </mxCell>
        <mxCell id="_7XjOBUv1tHCZMJbMvrB-348" value="" style="shape=image;verticalLabelPosition=bottom;labelBackgroundColor=default;verticalAlign=top;aspect=fixed;imageAspect=0;image=data:image/png,iVBORw0KGgoAAAANSUhEUgAAASwAAAEsCAYAAAB5fY51AAAAOXRFWHRTb2Z0d2FyZQBNYXRwbG90bGliIHZlcnNpb24zLjUuMiwgaHR0cHM6Ly9tYXRwbG90bGliLm9yZy8qNh9FAAAACXBIWXMAAA9hAAAPYQGoP6dpAAAEp0lEQVR4nO3WsU1bARiF0RC5QqKhYQJcuaFkEwoqz8QILj0HEkN4BDMAQnpZ4FnC1Z8vOWeCW326N8uy/AIo+D09AOCnBAvIECwgQ7CADMECMgQLyBAsIEOwgAzBAjIEC8gQLCBDsIAMwQIyBAvIECwgQ7CADMECMgQLyBAsIEOwgAzBAjIEC8gQLCBDsIAMwQIyBAvIECwgQ7CADMECMgQLyBAsIEOwgAzBAjIEC8gQLCBjMz2g6O3tbZnesOZ4PE5PuOj9/X16wqq7u7vpCRedz+eb6Q1/Gw8LyBAsIEOwgAzBAjIEC8gQLCBDsIAMwQIyBAvIECwgQ7CADMECMgQLyBAsIEOwgAzBAjIEC8gQLCBDsIAMwQIyBAvIECwgQ7CADMECMgQLyBAsIEOwgAzBAjIEC8gQLCBDsIAMwQIyBAvIECwgQ7CADMECMgQLyNhMDyi6v7+fnrDq+/t7esJFX19f0xNW7ff76QlcwcMCMgQLyBAsIEOwgAzBAjIEC8gQLCBDsIAMwQIyBAvIECwgQ7CADMECMgQLyBAsIEOwgAzBAjIEC8gQLCBDsIAMwQIyBAvIECwgQ7CADMECMgQLyBAsIEOwgAzBAjIEC8gQLCBDsIAMwQIyBAvIECwgQ7CADMECMgQLyNhMDyj6/PycnrBqu91OT7jo5eVlesKq5+fn6QlcwcMCMgQLyBAsIEOwgAzBAjIEC8gQLCBDsIAMwQIyBAvIECwgQ7CADMECMgQLyBAsIEOwgAzBAjIEC8gQLCBDsIAMwQIyBAvIECwgQ7CADMECMgQLyBAsIEOwgAzBAjIEC8gQLCBDsIAMwQIyBAvIECwgQ7CADMECMjbTA4oOh8P0hFUfHx/TEy66vb2dnrDq4eFhegJX8LCADMECMgQLyBAsIEOwgAzBAjIEC8gQLCBDsIAMwQIyBAvIECwgQ7CADMECMgQLyBAsIEOwgAzBAjIEC8gQLCBDsIAMwQIyBAvIECwgQ7CADMECMgQLyBAsIEOwgAzBAjIEC8gQLCBDsIAMwQIyBAvIECwgQ7CADMECMjbTA4peX1+nJ6x6enqannDR6XSanrDq8fFxegJX8LCADMECMgQLyBAsIEOwgAzBAjIEC8gQLCBDsIAMwQIyBAvIECwgQ7CADMECMgQLyBAsIEOwgAzBAjIEC8gQLCBDsIAMwQIyBAvIECwgQ7CADMECMgQLyBAsIEOwgAzBAjIEC8gQLCBDsIAMwQIyBAvIECwgQ7CAjM30AP4Pu91uegL/AA8LyBAsIEOwgAzBAjIEC8gQLCBDsIAMwQIyBAvIECwgQ7CADMECMgQLyBAsIEOwgAzBAjIEC8gQLCBDsIAMwQIyBAvIECwgQ7CADMECMgQLyBAsIEOwgAzBAjIEC8gQLCBDsIAMwQIyBAvIECwgQ7CADMECMgQLyBAsIONmWZbpDQA/4mEBGYIFZAgWkCFYQIZgARmCBWQIFpAhWECGYAEZggVkCBaQIVhAhmABGYIFZAgWkCFYQIZgARmCBWQIFpAhWECGYAEZggVkCBaQIVhAhmABGYIFZAgWkCFYQIZgARmCBWQIFpAhWEDGH7XZKGW526wKAAAAAElFTkSuQmCC;" parent="1" vertex="1">
          <mxGeometry x="492" y="74" width="234" height="234" as="geometry" />
        </mxCell>
        <mxCell id="_7XjOBUv1tHCZMJbMvrB-349" value="" style="shape=image;verticalLabelPosition=bottom;labelBackgroundColor=default;verticalAlign=top;imageAspect=0;image=data:image/png,iVBORw0KGgoAAAANSUhEUgAAAGsAAABrCAYAAABwv3wMAAAABHNCSVQICAgIfAhkiAAAAYdJREFUeF7t1cEJwEAMxMBLyNdtu+1cHQNyBUJi8bO7/+kIA9/MEKBBnvMmwTFQLKdVy4JaFatYkgGItZ9VLMgAhNqyigUZgFBbVrEgAxBqyyoWZABCbVnFggxAqC2rWJABCLVlFQsyAKG2rGJBBiDUllUsyACE2rKKBRmAUFtWsSADEGrLKhZkAEJtWcWCDECoLatYkAEItWUVCzIAobasYkEGINSWVSzIAITasooFGYBQW1axIAMQassqFmQAQm1ZxYIMQKgtq1iQAQi1ZRULMgChtqxiQQYg1JZVLMgAhNqyigUZgFBbVrEgAxBqyyoWZABCbVnFggxAqC2rWJABCLVlFQsyAKG2rGJBBiDUllUsyACE2rKKBRmAUFtWsSADEGrLKhZkAEJtWcWCDECoLatYkAEItWUVCzIAobasYkEGINSWVSzIAITasooFGYBQW1axIAMQassqFmQAQm1ZxYIMQKgtq1iQAQi1ZRULMgChtqxiQQYg1JZVLMgAhNqyigUZgFAvX6MDkIqb1J4AAAAASUVORK5CYII=;" parent="1" vertex="1">
          <mxGeometry x="642" y="102" width="30" height="29.8" as="geometry" />
        </mxCell>
        <mxCell id="_7XjOBUv1tHCZMJbMvrB-350" value="" style="shape=image;verticalLabelPosition=bottom;labelBackgroundColor=default;verticalAlign=top;imageAspect=0;image=data:image/png,iVBORw0KGgoAAAANSUhEUgAAAGsAAABrCAYAAABwv3wMAAAABHNCSVQICAgIfAhkiAAAAYdJREFUeF7t1cEJwEAMxMBLyNdtu+1cHQNyBUJi8bO7/+kIA9/MEKBBnvMmwTFQLKdVy4JaFatYkgGItZ9VLMgAhNqyigUZgFBbVrEgAxBqyyoWZABCbVnFggxAqC2rWJABCLVlFQsyAKG2rGJBBiDUllUsyACE2rKKBRmAUFtWsSADEGrLKhZkAEJtWcWCDECoLatYkAEItWUVCzIAobasYkEGINSWVSzIAITasooFGYBQW1axIAMQassqFmQAQm1ZxYIMQKgtq1iQAQi1ZRULMgChtqxiQQYg1JZVLMgAhNqyigUZgFBbVrEgAxBqyyoWZABCbVnFggxAqC2rWJABCLVlFQsyAKG2rGJBBiDUllUsyACE2rKKBRmAUFtWsSADEGrLKhZkAEJtWcWCDECoLatYkAEItWUVCzIAobasYkEGINSWVSzIAITasooFGYBQW1axIAMQassqFmQAQm1ZxYIMQKgtq1iQAQi1ZRULMgChtqxiQQYg1JZVLMgAhNqyigUZgFAvX6MDkIqb1J4AAAAASUVORK5CYII=;" parent="1" vertex="1">
          <mxGeometry x="552" y="102" width="29" height="30" as="geometry" />
        </mxCell>
        <mxCell id="_7XjOBUv1tHCZMJbMvrB-351" value="" style="shape=image;verticalLabelPosition=bottom;labelBackgroundColor=default;verticalAlign=top;imageAspect=0;image=data:image/png,iVBORw0KGgoAAAANSUhEUgAAAGsAAABrCAYAAABwv3wMAAAABHNCSVQICAgIfAhkiAAAAYdJREFUeF7t1cEJwEAMxMBLyNdtu+1cHQNyBUJi8bO7/+kIA9/MEKBBnvMmwTFQLKdVy4JaFatYkgGItZ9VLMgAhNqyigUZgFBbVrEgAxBqyyoWZABCbVnFggxAqC2rWJABCLVlFQsyAKG2rGJBBiDUllUsyACE2rKKBRmAUFtWsSADEGrLKhZkAEJtWcWCDECoLatYkAEItWUVCzIAobasYkEGINSWVSzIAITasooFGYBQW1axIAMQassqFmQAQm1ZxYIMQKgtq1iQAQi1ZRULMgChtqxiQQYg1JZVLMgAhNqyigUZgFBbVrEgAxBqyyoWZABCbVnFggxAqC2rWJABCLVlFQsyAKG2rGJBBiDUllUsyACE2rKKBRmAUFtWsSADEGrLKhZkAEJtWcWCDECoLatYkAEItWUVCzIAobasYkEGINSWVSzIAITasooFGYBQW1axIAMQassqFmQAQm1ZxYIMQKgtq1iQAQi1ZRULMgChtqxiQQYg1JZVLMgAhNqyigUZgFAvX6MDkIqb1J4AAAAASUVORK5CYII=;" parent="1" vertex="1">
          <mxGeometry x="552" y="102" width="29.7" height="60" as="geometry" />
        </mxCell>
        <mxCell id="_7XjOBUv1tHCZMJbMvrB-352" value="" style="shape=image;verticalLabelPosition=bottom;labelBackgroundColor=default;verticalAlign=top;imageAspect=0;image=data:image/png,iVBORw0KGgoAAAANSUhEUgAAAE8AAABICAYAAAC3Mag+AAAABHNCSVQICAgIfAhkiAAAAO1JREFUeF7t0rEJADEQA8H3w/Vfsg0uwZuO8k0GrZnZnz0J/E+V6ArAC0eABy8IhNTz4AWBkHoevCAQUs+DFwRC6nnwgkBIPQ9eEAip58ELAiH1PHhBIKSeBy8IhNTz4AWBkHoevCAQUs+DFwRC6nnwgkBIPQ9eEAip58ELAiH1PHhBIKSeBy8IhNTz4AWBkHoevCAQUs+DFwRC6nnwgkBIPQ9eEAip58ELAiH1PHhBIKSeBy8IhNTz4AWBkHoevCAQUs+DFwRC6nnwgkBIPQ9eEAip58ELAiH1PHhBIKSeBy8IhNTz4AWBkHpewDt3dwGe58lqLQAAAABJRU5ErkJggg==;" parent="1" vertex="1">
          <mxGeometry x="552" y="162" width="29.8" height="30" as="geometry" />
        </mxCell>
        <mxCell id="_7XjOBUv1tHCZMJbMvrB-353" value="" style="shape=image;verticalLabelPosition=bottom;labelBackgroundColor=default;verticalAlign=top;imageAspect=0;image=data:image/png,iVBORw0KGgoAAAANSUhEUgAAAHYAAABwCAYAAADL/oQMAAAABHNCSVQICAgIfAhkiAAAAZRJREFUeF7t0wENACAMxEDA6fyLgAQZzc1B2/2embtczsDJEQH6BoSNPoKwwkYNRLEsVtiogSiWxQobNRDFslhhowaiWBYrbNRAFMtihY0aiGJZrLBRA1EsixU2aiCKZbHCRg1EsSxW2KiBKJbFChs1EMWyWGGjBqJYFits1EAUy2KFjRqIYlmssFEDUSyLFTZqIIplscJGDUSxLFbYqIEolsUKGzUQxbJYYaMGolgWK2zUQBTLYoWNGohiWaywUQNRLIsVNmogimWxwkYNRLEsVtiogSiWxQobNRDFslhhowaiWBYrbNRAFMtihY0aiGJZrLBRA1EsixU2aiCKZbHCRg1EsSxW2KiBKJbFChs1EMWyWGGjBqJYFits1EAUy2KFjRqIYlmssFEDUSyLFTZqIIplscJGDUSxLFbYqIEolsUKGzUQxbJYYaMGolgWK2zUQBTLYoWNGohiWaywUQNRLIsVNmogimWxwkYNRLEsVtiogSiWxQobNRDFslhhowaiWBYrbNRAFMtihY0aiGJZbDTsA8y6AwKbURjPAAAAAElFTkSuQmCC;" parent="1" vertex="1">
          <mxGeometry x="641.5" y="252" width="30.5" height="30" as="geometry" />
        </mxCell>
        <mxCell id="_7XjOBUv1tHCZMJbMvrB-354" value="" style="shape=image;verticalLabelPosition=bottom;labelBackgroundColor=default;verticalAlign=top;imageAspect=0;image=data:image/png,iVBORw0KGgoAAAANSUhEUgAAAIYAAAB/CAYAAAAq5LpAAAAABHNCSVQICAgIfAhkiAAAAhVJREFUeF7t0rENACAQAzFgsd9/KujRjeCUKU/eM3OXKfAVOIooUAXAqCq+BQYEWQCMzOIEg4EsAEZmcYLBQBYAI7M4wWAgC4CRWZxgMJAFwMgsTjAYyAJgZBYnGAxkATAyixMMBrIAGJnFCQYDWQCMzOIEg4EsAEZmcYLBQBYAI7M4wWAgC4CRWZxgMJAFwMgsTjAYyAJgZBYnGAxkATAyixMMBrIAGJnFCQYDWQCMzOIEg4EsAEZmcYLBQBYAI7M4wWAgC4CRWZxgMJAFwMgsTjAYyAJgZBYnGAxkATAyixMMBrIAGJnFCQYDWQCMzOIEg4EsAEZmcYLBQBYAI7M4wWAgC4CRWZxgMJAFwMgsTjAYyAJgZBYnGAxkATAyixMMBrIAGJnFCQYDWQCMzOIEg4EsAEZmcYLBQBYAI7M4wWAgC4CRWZxgMJAFwMgsTjAYyAJgZBYnGAxkATAyixMMBrIAGJnFCQYDWQCMzOIEg4EsAEZmcYLBQBYAI7M4wWAgC4CRWZxgMJAFwMgsTjAYyAJgZBYnGAxkATAyixMMBrIAGJnFCQYDWQCMzOIEg4EsAEZmcYLBQBYAI7M4wWAgC4CRWZxgMJAFwMgsTjAYyAJgZBYnGAxkATAyixMMBrIAGJnFCQYDWQCMzOIEg4EsAEZmcYLBQBYAI7M4wWAgC4CRWZxgMJAFwMgsTjAYyAJgZBbnA1uLArry0MAyAAAAAElFTkSuQmCC;" parent="1" vertex="1">
          <mxGeometry x="641.41" y="162" width="30.59" height="29.8" as="geometry" />
        </mxCell>
        <mxCell id="_7XjOBUv1tHCZMJbMvrB-341" value="" style="shape=image;verticalLabelPosition=bottom;labelBackgroundColor=default;verticalAlign=top;aspect=fixed;imageAspect=0;image=data:image/png,iVBORw0KGgoAAAANSUhEUgAAASwAAAEsCAYAAAB5fY51AAAAOXRFWHRTb2Z0d2FyZQBNYXRwbG90bGliIHZlcnNpb24zLjUuMiwgaHR0cHM6Ly9tYXRwbG90bGliLm9yZy8qNh9FAAAACXBIWXMAAA9hAAAPYQGoP6dpAAAEp0lEQVR4nO3WsU1bARiF0RC5QqKhYQJcuaFkEwoqz8QILj0HEkN4BDMAQnpZ4FnC1Z8vOWeCW326N8uy/AIo+D09AOCnBAvIECwgQ7CADMECMgQLyBAsIEOwgAzBAjIEC8gQLCBDsIAMwQIyBAvIECwgQ7CADMECMgQLyBAsIEOwgAzBAjIEC8gQLCBDsIAMwQIyBAvIECwgQ7CADMECMgQLyBAsIEOwgAzBAjIEC8gQLCBjMz2g6O3tbZnesOZ4PE5PuOj9/X16wqq7u7vpCRedz+eb6Q1/Gw8LyBAsIEOwgAzBAjIEC8gQLCBDsIAMwQIyBAvIECwgQ7CADMECMgQLyBAsIEOwgAzBAjIEC8gQLCBDsIAMwQIyBAvIECwgQ7CADMECMgQLyBAsIEOwgAzBAjIEC8gQLCBDsIAMwQIyBAvIECwgQ7CADMECMgQLyNhMDyi6v7+fnrDq+/t7esJFX19f0xNW7ff76QlcwcMCMgQLyBAsIEOwgAzBAjIEC8gQLCBDsIAMwQIyBAvIECwgQ7CADMECMgQLyBAsIEOwgAzBAjIEC8gQLCBDsIAMwQIyBAvIECwgQ7CADMECMgQLyBAsIEOwgAzBAjIEC8gQLCBDsIAMwQIyBAvIECwgQ7CADMECMgQLyNhMDyj6/PycnrBqu91OT7jo5eVlesKq5+fn6QlcwcMCMgQLyBAsIEOwgAzBAjIEC8gQLCBDsIAMwQIyBAvIECwgQ7CADMECMgQLyBAsIEOwgAzBAjIEC8gQLCBDsIAMwQIyBAvIECwgQ7CADMECMgQLyBAsIEOwgAzBAjIEC8gQLCBDsIAMwQIyBAvIECwgQ7CADMECMjbTA4oOh8P0hFUfHx/TEy66vb2dnrDq4eFhegJX8LCADMECMgQLyBAsIEOwgAzBAjIEC8gQLCBDsIAMwQIyBAvIECwgQ7CADMECMgQLyBAsIEOwgAzBAjIEC8gQLCBDsIAMwQIyBAvIECwgQ7CADMECMgQLyBAsIEOwgAzBAjIEC8gQLCBDsIAMwQIyBAvIECwgQ7CADMECMjbTA4peX1+nJ6x6enqannDR6XSanrDq8fFxegJX8LCADMECMgQLyBAsIEOwgAzBAjIEC8gQLCBDsIAMwQIyBAvIECwgQ7CADMECMgQLyBAsIEOwgAzBAjIEC8gQLCBDsIAMwQIyBAvIECwgQ7CADMECMgQLyBAsIEOwgAzBAjIEC8gQLCBDsIAMwQIyBAvIECwgQ7CAjM30AP4Pu91uegL/AA8LyBAsIEOwgAzBAjIEC8gQLCBDsIAMwQIyBAvIECwgQ7CADMECMgQLyBAsIEOwgAzBAjIEC8gQLCBDsIAMwQIyBAvIECwgQ7CADMECMgQLyBAsIEOwgAzBAjIEC8gQLCBDsIAMwQIyBAvIECwgQ7CADMECMgQLyBAsIONmWZbpDQA/4mEBGYIFZAgWkCFYQIZgARmCBWQIFpAhWECGYAEZggVkCBaQIVhAhmABGYIFZAgWkCFYQIZgARmCBWQIFpAhWECGYAEZggVkCBaQIVhAhmABGYIFZAgWkCFYQIZgARmCBWQIFpAhWEDGH7XZKGW526wKAAAAAElFTkSuQmCC;" parent="1" vertex="1">
          <mxGeometry x="489" y="78" width="234" height="234" as="geometry" />
        </mxCell>
        <mxCell id="_7XjOBUv1tHCZMJbMvrB-342" value="" style="shape=image;verticalLabelPosition=bottom;labelBackgroundColor=default;verticalAlign=top;imageAspect=0;image=data:image/png,iVBORw0KGgoAAAANSUhEUgAAAGsAAABrCAYAAABwv3wMAAAABHNCSVQICAgIfAhkiAAAAYdJREFUeF7t1cEJwEAMxMBLyNdtu+1cHQNyBUJi8bO7/+kIA9/MEKBBnvMmwTFQLKdVy4JaFatYkgGItZ9VLMgAhNqyigUZgFBbVrEgAxBqyyoWZABCbVnFggxAqC2rWJABCLVlFQsyAKG2rGJBBiDUllUsyACE2rKKBRmAUFtWsSADEGrLKhZkAEJtWcWCDECoLatYkAEItWUVCzIAobasYkEGINSWVSzIAITasooFGYBQW1axIAMQassqFmQAQm1ZxYIMQKgtq1iQAQi1ZRULMgChtqxiQQYg1JZVLMgAhNqyigUZgFBbVrEgAxBqyyoWZABCbVnFggxAqC2rWJABCLVlFQsyAKG2rGJBBiDUllUsyACE2rKKBRmAUFtWsSADEGrLKhZkAEJtWcWCDECoLatYkAEItWUVCzIAobasYkEGINSWVSzIAITasooFGYBQW1axIAMQassqFmQAQm1ZxYIMQKgtq1iQAQi1ZRULMgChtqxiQQYg1JZVLMgAhNqyigUZgFAvX6MDkIqb1J4AAAAASUVORK5CYII=;" parent="1" vertex="1">
          <mxGeometry x="639" y="106" width="30" height="29.8" as="geometry" />
        </mxCell>
        <mxCell id="_7XjOBUv1tHCZMJbMvrB-343" value="" style="shape=image;verticalLabelPosition=bottom;labelBackgroundColor=default;verticalAlign=top;imageAspect=0;image=data:image/png,iVBORw0KGgoAAAANSUhEUgAAAGsAAABrCAYAAABwv3wMAAAABHNCSVQICAgIfAhkiAAAAYdJREFUeF7t1cEJwEAMxMBLyNdtu+1cHQNyBUJi8bO7/+kIA9/MEKBBnvMmwTFQLKdVy4JaFatYkgGItZ9VLMgAhNqyigUZgFBbVrEgAxBqyyoWZABCbVnFggxAqC2rWJABCLVlFQsyAKG2rGJBBiDUllUsyACE2rKKBRmAUFtWsSADEGrLKhZkAEJtWcWCDECoLatYkAEItWUVCzIAobasYkEGINSWVSzIAITasooFGYBQW1axIAMQassqFmQAQm1ZxYIMQKgtq1iQAQi1ZRULMgChtqxiQQYg1JZVLMgAhNqyigUZgFBbVrEgAxBqyyoWZABCbVnFggxAqC2rWJABCLVlFQsyAKG2rGJBBiDUllUsyACE2rKKBRmAUFtWsSADEGrLKhZkAEJtWcWCDECoLatYkAEItWUVCzIAobasYkEGINSWVSzIAITasooFGYBQW1axIAMQassqFmQAQm1ZxYIMQKgtq1iQAQi1ZRULMgChtqxiQQYg1JZVLMgAhNqyigUZgFAvX6MDkIqb1J4AAAAASUVORK5CYII=;" parent="1" vertex="1">
          <mxGeometry x="549" y="106" width="29" height="30" as="geometry" />
        </mxCell>
        <mxCell id="_7XjOBUv1tHCZMJbMvrB-344" value="" style="shape=image;verticalLabelPosition=bottom;labelBackgroundColor=default;verticalAlign=top;imageAspect=0;image=data:image/png,iVBORw0KGgoAAAANSUhEUgAAAGsAAABrCAYAAABwv3wMAAAABHNCSVQICAgIfAhkiAAAAYdJREFUeF7t1cEJwEAMxMBLyNdtu+1cHQNyBUJi8bO7/+kIA9/MEKBBnvMmwTFQLKdVy4JaFatYkgGItZ9VLMgAhNqyigUZgFBbVrEgAxBqyyoWZABCbVnFggxAqC2rWJABCLVlFQsyAKG2rGJBBiDUllUsyACE2rKKBRmAUFtWsSADEGrLKhZkAEJtWcWCDECoLatYkAEItWUVCzIAobasYkEGINSWVSzIAITasooFGYBQW1axIAMQassqFmQAQm1ZxYIMQKgtq1iQAQi1ZRULMgChtqxiQQYg1JZVLMgAhNqyigUZgFBbVrEgAxBqyyoWZABCbVnFggxAqC2rWJABCLVlFQsyAKG2rGJBBiDUllUsyACE2rKKBRmAUFtWsSADEGrLKhZkAEJtWcWCDECoLatYkAEItWUVCzIAobasYkEGINSWVSzIAITasooFGYBQW1axIAMQassqFmQAQm1ZxYIMQKgtq1iQAQi1ZRULMgChtqxiQQYg1JZVLMgAhNqyigUZgFAvX6MDkIqb1J4AAAAASUVORK5CYII=;" parent="1" vertex="1">
          <mxGeometry x="549" y="106" width="29.7" height="60" as="geometry" />
        </mxCell>
        <mxCell id="_7XjOBUv1tHCZMJbMvrB-345" value="" style="shape=image;verticalLabelPosition=bottom;labelBackgroundColor=default;verticalAlign=top;imageAspect=0;image=data:image/png,iVBORw0KGgoAAAANSUhEUgAAAE8AAABICAYAAAC3Mag+AAAABHNCSVQICAgIfAhkiAAAAO1JREFUeF7t0rEJADEQA8H3w/Vfsg0uwZuO8k0GrZnZnz0J/E+V6ArAC0eABy8IhNTz4AWBkHoevCAQUs+DFwRC6nnwgkBIPQ9eEAip58ELAiH1PHhBIKSeBy8IhNTz4AWBkHoevCAQUs+DFwRC6nnwgkBIPQ9eEAip58ELAiH1PHhBIKSeBy8IhNTz4AWBkHoevCAQUs+DFwRC6nnwgkBIPQ9eEAip58ELAiH1PHhBIKSeBy8IhNTz4AWBkHoevCAQUs+DFwRC6nnwgkBIPQ9eEAip58ELAiH1PHhBIKSeBy8IhNTz4AWBkHpewDt3dwGe58lqLQAAAABJRU5ErkJggg==;" parent="1" vertex="1">
          <mxGeometry x="549" y="166" width="29.8" height="30" as="geometry" />
        </mxCell>
        <mxCell id="_7XjOBUv1tHCZMJbMvrB-346" value="" style="shape=image;verticalLabelPosition=bottom;labelBackgroundColor=default;verticalAlign=top;imageAspect=0;image=data:image/png,iVBORw0KGgoAAAANSUhEUgAAAHYAAABwCAYAAADL/oQMAAAABHNCSVQICAgIfAhkiAAAAZRJREFUeF7t0wENACAMxEDA6fyLgAQZzc1B2/2embtczsDJEQH6BoSNPoKwwkYNRLEsVtiogSiWxQobNRDFslhhowaiWBYrbNRAFMtihY0aiGJZrLBRA1EsixU2aiCKZbHCRg1EsSxW2KiBKJbFChs1EMWyWGGjBqJYFits1EAUy2KFjRqIYlmssFEDUSyLFTZqIIplscJGDUSxLFbYqIEolsUKGzUQxbJYYaMGolgWK2zUQBTLYoWNGohiWaywUQNRLIsVNmogimWxwkYNRLEsVtiogSiWxQobNRDFslhhowaiWBYrbNRAFMtihY0aiGJZrLBRA1EsixU2aiCKZbHCRg1EsSxW2KiBKJbFChs1EMWyWGGjBqJYFits1EAUy2KFjRqIYlmssFEDUSyLFTZqIIplscJGDUSxLFbYqIEolsUKGzUQxbJYYaMGolgWK2zUQBTLYoWNGohiWaywUQNRLIsVNmogimWxwkYNRLEsVtiogSiWxQobNRDFslhhowaiWBYrbNRAFMtihY0aiGJZbDTsA8y6AwKbURjPAAAAAElFTkSuQmCC;" parent="1" vertex="1">
          <mxGeometry x="638.5" y="256" width="30.5" height="30" as="geometry" />
        </mxCell>
        <mxCell id="_7XjOBUv1tHCZMJbMvrB-347" value="" style="shape=image;verticalLabelPosition=bottom;labelBackgroundColor=default;verticalAlign=top;imageAspect=0;image=data:image/png,iVBORw0KGgoAAAANSUhEUgAAAIYAAAB/CAYAAAAq5LpAAAAABHNCSVQICAgIfAhkiAAAAhVJREFUeF7t0rENACAQAzFgsd9/KujRjeCUKU/eM3OXKfAVOIooUAXAqCq+BQYEWQCMzOIEg4EsAEZmcYLBQBYAI7M4wWAgC4CRWZxgMJAFwMgsTjAYyAJgZBYnGAxkATAyixMMBrIAGJnFCQYDWQCMzOIEg4EsAEZmcYLBQBYAI7M4wWAgC4CRWZxgMJAFwMgsTjAYyAJgZBYnGAxkATAyixMMBrIAGJnFCQYDWQCMzOIEg4EsAEZmcYLBQBYAI7M4wWAgC4CRWZxgMJAFwMgsTjAYyAJgZBYnGAxkATAyixMMBrIAGJnFCQYDWQCMzOIEg4EsAEZmcYLBQBYAI7M4wWAgC4CRWZxgMJAFwMgsTjAYyAJgZBYnGAxkATAyixMMBrIAGJnFCQYDWQCMzOIEg4EsAEZmcYLBQBYAI7M4wWAgC4CRWZxgMJAFwMgsTjAYyAJgZBYnGAxkATAyixMMBrIAGJnFCQYDWQCMzOIEg4EsAEZmcYLBQBYAI7M4wWAgC4CRWZxgMJAFwMgsTjAYyAJgZBYnGAxkATAyixMMBrIAGJnFCQYDWQCMzOIEg4EsAEZmcYLBQBYAI7M4wWAgC4CRWZxgMJAFwMgsTjAYyAJgZBYnGAxkATAyixMMBrIAGJnFCQYDWQCMzOIEg4EsAEZmcYLBQBYAI7M4wWAgC4CRWZxgMJAFwMgsTjAYyAJgZBbnA1uLArry0MAyAAAAAElFTkSuQmCC;" parent="1" vertex="1">
          <mxGeometry x="638.41" y="166" width="30.59" height="29.8" as="geometry" />
        </mxCell>
        <mxCell id="_7XjOBUv1tHCZMJbMvrB-300" value="" style="group" parent="1" vertex="1" connectable="0">
          <mxGeometry x="88" y="102" width="220" height="180" as="geometry" />
        </mxCell>
        <mxCell id="_7XjOBUv1tHCZMJbMvrB-301" value="&lt;span style=&quot;border-color: var(--border-color); font-size: 6px;&quot;&gt;&lt;font style=&quot;font-size: 6px;&quot;&gt;Temporary&lt;br style=&quot;font-size: 6px;&quot;&gt;Features&lt;br style=&quot;font-size: 6px;&quot;&gt;&lt;/font&gt;&lt;/span&gt;" style="rounded=0;whiteSpace=wrap;html=1;strokeWidth=0.5;align=center;verticalAlign=middle;fontSize=6;fillColor=#cdeb8b;strokeColor=#36393d;" parent="_7XjOBUv1tHCZMJbMvrB-300" vertex="1">
          <mxGeometry x="30" y="90" width="70" height="30" as="geometry" />
        </mxCell>
        <mxCell id="_7XjOBUv1tHCZMJbMvrB-302" value="&lt;span style=&quot;border-color: var(--border-color); font-size: 6px;&quot;&gt;&lt;font style=&quot;font-size: 6px;&quot;&gt;Environmental Features&lt;/font&gt;&lt;/span&gt;" style="rounded=0;whiteSpace=wrap;html=1;strokeWidth=0.5;align=center;verticalAlign=middle;fontSize=6;fillColor=#ffff88;strokeColor=#36393d;" parent="_7XjOBUv1tHCZMJbMvrB-300" vertex="1">
          <mxGeometry x="30" width="70" height="30" as="geometry" />
        </mxCell>
        <mxCell id="_7XjOBUv1tHCZMJbMvrB-303" value="&lt;span style=&quot;border-color: var(--border-color); font-size: 6px;&quot;&gt;&lt;font style=&quot;font-size: 6px;&quot;&gt;Driving Limitations&lt;br style=&quot;font-size: 6px;&quot;&gt;Features&lt;br style=&quot;font-size: 6px;&quot;&gt;&lt;/font&gt;&lt;/span&gt;" style="rounded=0;whiteSpace=wrap;html=1;strokeWidth=0.5;align=center;verticalAlign=middle;fontSize=6;fillColor=#cce5ff;strokeColor=#36393d;" parent="_7XjOBUv1tHCZMJbMvrB-300" vertex="1">
          <mxGeometry x="30" y="120" width="70" height="30" as="geometry" />
        </mxCell>
        <mxCell id="_7XjOBUv1tHCZMJbMvrB-304" value="&lt;span style=&quot;border-color: var(--border-color); font-size: 6px;&quot;&gt;&lt;font style=&quot;font-size: 6px;&quot;&gt;Location &amp;amp; Scale Accident&lt;br style=&quot;font-size: 6px;&quot;&gt;Features&lt;br style=&quot;font-size: 6px;&quot;&gt;&lt;/font&gt;&lt;/span&gt;" style="rounded=0;whiteSpace=wrap;html=1;strokeWidth=0.5;align=center;verticalAlign=middle;fontSize=6;fillColor=#eeeeee;strokeColor=#36393d;" parent="_7XjOBUv1tHCZMJbMvrB-300" vertex="1">
          <mxGeometry x="30" y="60" width="70" height="30" as="geometry" />
        </mxCell>
        <mxCell id="_7XjOBUv1tHCZMJbMvrB-305" value="&lt;span style=&quot;font-size: 6px;&quot;&gt;Vehicle Features&lt;/span&gt;" style="rounded=0;whiteSpace=wrap;html=1;strokeWidth=0.5;align=center;verticalAlign=middle;fontSize=6;fillColor=#ffcc99;strokeColor=#36393d;" parent="_7XjOBUv1tHCZMJbMvrB-300" vertex="1">
          <mxGeometry x="30" y="30" width="70" height="30" as="geometry" />
        </mxCell>
        <mxCell id="_7XjOBUv1tHCZMJbMvrB-306" value="&lt;span style=&quot;border-color: var(--border-color); font-size: 6px;&quot;&gt;&lt;font style=&quot;font-size: 6px;&quot;&gt;Victim&lt;br style=&quot;font-size: 6px;&quot;&gt;Features&lt;br style=&quot;font-size: 6px;&quot;&gt;&lt;/font&gt;&lt;/span&gt;" style="rounded=0;whiteSpace=wrap;html=1;strokeWidth=0.5;align=center;verticalAlign=middle;fontSize=6;fillColor=#ffcccc;strokeColor=#36393d;" parent="_7XjOBUv1tHCZMJbMvrB-300" vertex="1">
          <mxGeometry x="30" y="150" width="70" height="30" as="geometry" />
        </mxCell>
        <mxCell id="_7XjOBUv1tHCZMJbMvrB-307" value="&lt;span style=&quot;border-color: var(--border-color); font-size: 6px;&quot;&gt;&lt;font style=&quot;font-size: 6px;&quot;&gt;&lt;b style=&quot;font-size: 6px;&quot;&gt;1&lt;/b&gt;&lt;/font&gt;&lt;/span&gt;" style="rounded=0;whiteSpace=wrap;html=1;strokeWidth=0.5;align=center;verticalAlign=middle;fontSize=6;fillColor=#cdeb8b;strokeColor=#36393d;" parent="_7XjOBUv1tHCZMJbMvrB-300" vertex="1">
          <mxGeometry y="90" width="30" height="30" as="geometry" />
        </mxCell>
        <mxCell id="_7XjOBUv1tHCZMJbMvrB-308" value="&lt;span style=&quot;border-color: var(--border-color); font-size: 6px;&quot;&gt;&lt;font style=&quot;font-size: 6px;&quot;&gt;&lt;b style=&quot;font-size: 6px;&quot;&gt;3&lt;/b&gt;&lt;/font&gt;&lt;/span&gt;" style="rounded=0;whiteSpace=wrap;html=1;strokeWidth=0.5;align=center;verticalAlign=middle;fontSize=6;fillColor=#dae8fc;strokeColor=#000000;" parent="_7XjOBUv1tHCZMJbMvrB-300" vertex="1">
          <mxGeometry y="120" width="30" height="30" as="geometry" />
        </mxCell>
        <mxCell id="_7XjOBUv1tHCZMJbMvrB-309" value="&lt;span style=&quot;border-color: var(--border-color); font-size: 6px;&quot;&gt;&lt;font style=&quot;font-size: 6px;&quot;&gt;&lt;b style=&quot;font-size: 6px;&quot;&gt;2&lt;/b&gt;&lt;/font&gt;&lt;/span&gt;" style="rounded=0;whiteSpace=wrap;html=1;strokeWidth=0.5;align=center;verticalAlign=middle;fontSize=6;fillColor=#EEEEEE;strokeColor=#36393D;fontColor=#333333;" parent="_7XjOBUv1tHCZMJbMvrB-300" vertex="1">
          <mxGeometry y="60" width="30" height="30" as="geometry" />
        </mxCell>
        <mxCell id="_7XjOBUv1tHCZMJbMvrB-310" value="&lt;span style=&quot;font-size: 6px;&quot;&gt;4&lt;/span&gt;" style="rounded=0;whiteSpace=wrap;html=1;strokeWidth=0.5;align=center;verticalAlign=middle;fontSize=6;fillColor=#ffcc99;strokeColor=#36393d;fontStyle=1" parent="_7XjOBUv1tHCZMJbMvrB-300" vertex="1">
          <mxGeometry y="30" width="30" height="30" as="geometry" />
        </mxCell>
        <mxCell id="_7XjOBUv1tHCZMJbMvrB-311" value="&lt;span style=&quot;border-color: var(--border-color); font-size: 6px;&quot;&gt;&lt;font style=&quot;font-size: 6px;&quot;&gt;5&lt;/font&gt;&lt;/span&gt;" style="rounded=0;whiteSpace=wrap;html=1;strokeWidth=0.5;align=center;verticalAlign=middle;fontSize=6;fillColor=#ffcccc;strokeColor=#36393d;fontStyle=1" parent="_7XjOBUv1tHCZMJbMvrB-300" vertex="1">
          <mxGeometry y="150" width="30" height="30" as="geometry" />
        </mxCell>
        <mxCell id="_7XjOBUv1tHCZMJbMvrB-312" value="&lt;span style=&quot;border-color: var(--border-color); font-size: 6px;&quot;&gt;&lt;font style=&quot;font-size: 6px;&quot;&gt;&lt;b style=&quot;font-size: 6px;&quot;&gt;6&lt;/b&gt;&lt;/font&gt;&lt;/span&gt;" style="rounded=0;whiteSpace=wrap;html=1;strokeWidth=0.5;align=center;verticalAlign=middle;fontSize=6;fillColor=#ffff88;strokeColor=#36393d;" parent="_7XjOBUv1tHCZMJbMvrB-300" vertex="1">
          <mxGeometry width="30" height="30" as="geometry" />
        </mxCell>
        <mxCell id="_7XjOBUv1tHCZMJbMvrB-313" value="&lt;font style=&quot;font-size: 6px;&quot;&gt;L&lt;/font&gt;" style="rounded=0;whiteSpace=wrap;html=1;verticalAlign=middle;fillColor=#f5f5f5;fontColor=#333333;strokeColor=#666666;strokeWidth=0.5;direction=south;align=center;fontSize=6;" parent="_7XjOBUv1tHCZMJbMvrB-300" vertex="1">
          <mxGeometry x="100" width="30" height="30" as="geometry" />
        </mxCell>
        <mxCell id="_7XjOBUv1tHCZMJbMvrB-314" value="&lt;font style=&quot;font-size: 6px;&quot;&gt;W&lt;/font&gt;" style="rounded=0;whiteSpace=wrap;html=1;verticalAlign=middle;fillColor=#f5f5f5;fontColor=#333333;strokeColor=#666666;strokeWidth=0.5;direction=south;align=center;fontSize=6;" parent="_7XjOBUv1tHCZMJbMvrB-300" vertex="1">
          <mxGeometry x="130" width="30" height="30" as="geometry" />
        </mxCell>
        <mxCell id="_7XjOBUv1tHCZMJbMvrB-315" value="&lt;font style=&quot;font-size: 6px;&quot;&gt;I&lt;/font&gt;" style="rounded=0;whiteSpace=wrap;html=1;verticalAlign=middle;fillColor=#f5f5f5;fontColor=#333333;strokeColor=#666666;strokeWidth=0.5;direction=south;align=center;fontSize=6;" parent="_7XjOBUv1tHCZMJbMvrB-300" vertex="1">
          <mxGeometry x="100" y="30" width="30" height="30" as="geometry" />
        </mxCell>
        <mxCell id="_7XjOBUv1tHCZMJbMvrB-316" value="&lt;font style=&quot;font-size: 6px;&quot;&gt;A&lt;/font&gt;" style="rounded=0;whiteSpace=wrap;html=1;verticalAlign=middle;fillColor=#f5f5f5;fontColor=#333333;strokeColor=#666666;strokeWidth=0.5;direction=south;align=center;fontSize=6;" parent="_7XjOBUv1tHCZMJbMvrB-300" vertex="1">
          <mxGeometry x="130" y="30" width="30" height="30" as="geometry" />
        </mxCell>
        <mxCell id="_7XjOBUv1tHCZMJbMvrB-317" value="&lt;font style=&quot;font-size: 6px;&quot;&gt;T&lt;/font&gt;" style="rounded=0;whiteSpace=wrap;html=1;verticalAlign=middle;fillColor=#f5f5f5;fontColor=#333333;strokeColor=#666666;strokeWidth=0.5;direction=south;align=center;fontSize=6;" parent="_7XjOBUv1tHCZMJbMvrB-300" vertex="1">
          <mxGeometry x="160" y="30" width="30" height="30" as="geometry" />
        </mxCell>
        <mxCell id="_7XjOBUv1tHCZMJbMvrB-318" value="&lt;font style=&quot;font-size: 6px;&quot;&gt;V&lt;/font&gt;" style="rounded=0;whiteSpace=wrap;html=1;verticalAlign=middle;fillColor=#f5f5f5;fontColor=#333333;strokeColor=#666666;strokeWidth=0.5;direction=south;align=center;fontSize=6;" parent="_7XjOBUv1tHCZMJbMvrB-300" vertex="1">
          <mxGeometry x="100" y="60" width="30" height="30" as="geometry" />
        </mxCell>
        <mxCell id="_7XjOBUv1tHCZMJbMvrB-319" value="LO" style="rounded=0;whiteSpace=wrap;html=1;verticalAlign=middle;fillColor=#f5f5f5;fontColor=#333333;strokeColor=#666666;strokeWidth=0.5;direction=south;align=center;fontSize=6;" parent="_7XjOBUv1tHCZMJbMvrB-300" vertex="1">
          <mxGeometry x="130" y="60" width="30" height="30" as="geometry" />
        </mxCell>
        <mxCell id="_7XjOBUv1tHCZMJbMvrB-320" value="&lt;font style=&quot;font-size: 6px;&quot;&gt;LA&lt;/font&gt;" style="rounded=0;whiteSpace=wrap;html=1;verticalAlign=middle;fillColor=#f5f5f5;fontColor=#333333;strokeColor=#666666;strokeWidth=0.5;direction=south;fontSize=6;" parent="_7XjOBUv1tHCZMJbMvrB-300" vertex="1">
          <mxGeometry x="190" y="60" width="30" height="30" as="geometry" />
        </mxCell>
        <mxCell id="_7XjOBUv1tHCZMJbMvrB-321" value="&lt;font style=&quot;font-size: 6px;&quot;&gt;D&lt;br style=&quot;font-size: 6px;&quot;&gt;&lt;/font&gt;" style="rounded=0;whiteSpace=wrap;html=1;verticalAlign=middle;fillColor=#f5f5f5;fontColor=#333333;strokeColor=#666666;strokeWidth=0.5;direction=south;align=center;fontSize=6;" parent="_7XjOBUv1tHCZMJbMvrB-300" vertex="1">
          <mxGeometry x="100" y="90" width="30" height="30" as="geometry" />
        </mxCell>
        <mxCell id="_7XjOBUv1tHCZMJbMvrB-322" value="&lt;font style=&quot;font-size: 6px;&quot;&gt;W&lt;/font&gt;" style="rounded=0;whiteSpace=wrap;html=1;verticalAlign=middle;fillColor=#f5f5f5;fontColor=#333333;strokeColor=#666666;strokeWidth=0.5;direction=south;align=center;fontSize=6;" parent="_7XjOBUv1tHCZMJbMvrB-300" vertex="1">
          <mxGeometry x="130" y="90" width="30" height="30" as="geometry" />
        </mxCell>
        <mxCell id="_7XjOBUv1tHCZMJbMvrB-323" value="&lt;font style=&quot;font-size: 6px;&quot;&gt;C&lt;/font&gt;" style="rounded=0;whiteSpace=wrap;html=1;verticalAlign=middle;fillColor=#f5f5f5;fontColor=#333333;strokeColor=#666666;strokeWidth=0.5;direction=south;align=center;fontSize=6;" parent="_7XjOBUv1tHCZMJbMvrB-300" vertex="1">
          <mxGeometry x="160" y="90" width="30" height="30" as="geometry" />
        </mxCell>
        <mxCell id="_7XjOBUv1tHCZMJbMvrB-324" value="&lt;font style=&quot;font-size: 6px;&quot;&gt;S&lt;/font&gt;" style="rounded=0;whiteSpace=wrap;html=1;verticalAlign=middle;fillColor=#f5f5f5;fontColor=#333333;strokeColor=#666666;strokeWidth=0.5;direction=south;fontSize=6;" parent="_7XjOBUv1tHCZMJbMvrB-300" vertex="1">
          <mxGeometry x="190" y="90" width="30" height="30" as="geometry" />
        </mxCell>
        <mxCell id="_7XjOBUv1tHCZMJbMvrB-325" value="&lt;font style=&quot;font-size: 6px;&quot;&gt;SP&lt;/font&gt;" style="rounded=0;whiteSpace=wrap;html=1;verticalAlign=middle;fillColor=#f5f5f5;fontColor=#333333;strokeColor=#666666;strokeWidth=0.5;direction=south;align=center;fontSize=6;" parent="_7XjOBUv1tHCZMJbMvrB-300" vertex="1">
          <mxGeometry x="100" y="120" width="30" height="30" as="geometry" />
        </mxCell>
        <mxCell id="_7XjOBUv1tHCZMJbMvrB-326" value="&lt;font style=&quot;font-size: 6px;&quot;&gt;SU&lt;/font&gt;" style="rounded=0;whiteSpace=wrap;html=1;verticalAlign=middle;fillColor=#f5f5f5;fontColor=#333333;strokeColor=#666666;strokeWidth=0.5;direction=south;align=center;fontSize=6;" parent="_7XjOBUv1tHCZMJbMvrB-300" vertex="1">
          <mxGeometry x="130" y="120" width="30" height="30" as="geometry" />
        </mxCell>
        <mxCell id="_7XjOBUv1tHCZMJbMvrB-327" value="&lt;font style=&quot;font-size: 6px;&quot;&gt;A&lt;/font&gt;" style="rounded=0;whiteSpace=wrap;html=1;verticalAlign=middle;fillColor=#f5f5f5;fontColor=#333333;strokeColor=#666666;strokeWidth=0.5;direction=south;align=center;fontSize=6;" parent="_7XjOBUv1tHCZMJbMvrB-300" vertex="1">
          <mxGeometry x="100" y="150" width="30" height="30" as="geometry" />
        </mxCell>
        <mxCell id="_7XjOBUv1tHCZMJbMvrB-328" value="&lt;font style=&quot;font-size: 6px;&quot;&gt;C&lt;/font&gt;" style="rounded=0;whiteSpace=wrap;html=1;verticalAlign=middle;fillColor=#f5f5f5;fontColor=#333333;strokeColor=#666666;strokeWidth=0.5;direction=south;align=center;fontSize=6;" parent="_7XjOBUv1tHCZMJbMvrB-300" vertex="1">
          <mxGeometry x="130" y="150" width="30" height="30" as="geometry" />
        </mxCell>
        <mxCell id="_7XjOBUv1tHCZMJbMvrB-329" value="&lt;font style=&quot;font-size: 6px;&quot;&gt;S&lt;/font&gt;" style="rounded=0;whiteSpace=wrap;html=1;verticalAlign=middle;fillColor=#f5f5f5;fontColor=#333333;strokeColor=#666666;strokeWidth=0.5;direction=south;align=center;fontSize=6;" parent="_7XjOBUv1tHCZMJbMvrB-300" vertex="1">
          <mxGeometry x="160" y="150" width="30" height="30" as="geometry" />
        </mxCell>
        <mxCell id="_7XjOBUv1tHCZMJbMvrB-330" value="&lt;font style=&quot;font-size: 6px;&quot;&gt;R&lt;/font&gt;" style="rounded=0;whiteSpace=wrap;html=1;verticalAlign=middle;fillColor=#f5f5f5;fontColor=#333333;strokeColor=#666666;strokeWidth=0.5;direction=south;align=center;fontSize=6;" parent="_7XjOBUv1tHCZMJbMvrB-300" vertex="1">
          <mxGeometry x="160" y="60" width="30" height="30" as="geometry" />
        </mxCell>
        <mxCell id="_7XjOBUv1tHCZMJbMvrB-122" value="X" style="rounded=0;whiteSpace=wrap;html=1;verticalAlign=middle;fillColor=#C4C4C4;fontColor=#333333;strokeColor=#666666;strokeWidth=0.5;direction=south;fontSize=6;" parent="1" vertex="1">
          <mxGeometry x="370" y="102" width="30" height="30" as="geometry" />
        </mxCell>
        <mxCell id="_7XjOBUv1tHCZMJbMvrB-123" value="&lt;font style=&quot;font-size: 6px;&quot;&gt;W&lt;/font&gt;" style="rounded=0;whiteSpace=wrap;html=1;verticalAlign=middle;fillColor=#f5f5f5;fontColor=#333333;strokeColor=#666666;strokeWidth=0.5;direction=south;align=center;fontSize=6;" parent="1" vertex="1">
          <mxGeometry x="400" y="102" width="30" height="30" as="geometry" />
        </mxCell>
        <mxCell id="_7XjOBUv1tHCZMJbMvrB-124" value="&lt;font style=&quot;font-size: 6px;&quot;&gt;L&lt;/font&gt;" style="rounded=0;whiteSpace=wrap;html=1;verticalAlign=middle;fillColor=#f5f5f5;fontColor=#333333;strokeColor=#666666;strokeWidth=0.5;direction=south;align=center;fontSize=6;" parent="1" vertex="1">
          <mxGeometry x="430" y="102" width="30" height="30" as="geometry" />
        </mxCell>
        <mxCell id="_7XjOBUv1tHCZMJbMvrB-125" value="X" style="rounded=0;whiteSpace=wrap;html=1;verticalAlign=middle;fillColor=#C4C4C4;fontColor=#333333;strokeColor=#666666;strokeWidth=0.5;direction=south;align=center;fontSize=6;" parent="1" vertex="1">
          <mxGeometry x="460" y="102" width="30" height="30" as="geometry" />
        </mxCell>
        <mxCell id="_7XjOBUv1tHCZMJbMvrB-126" value="X" style="rounded=0;whiteSpace=wrap;html=1;verticalAlign=middle;fillColor=#C4C4C4;fontColor=#333333;strokeColor=#666666;strokeWidth=0.5;direction=south;fontSize=6;" parent="1" vertex="1">
          <mxGeometry x="370" y="222" width="30" height="30" as="geometry" />
        </mxCell>
        <mxCell id="_7XjOBUv1tHCZMJbMvrB-127" value="&lt;font style=&quot;font-size: 6px;&quot;&gt;SU&lt;/font&gt;" style="rounded=0;whiteSpace=wrap;html=1;verticalAlign=middle;fillColor=#f5f5f5;fontColor=#333333;strokeColor=#666666;strokeWidth=0.5;direction=south;align=center;fontSize=6;" parent="1" vertex="1">
          <mxGeometry x="400" y="222" width="30" height="30" as="geometry" />
        </mxCell>
        <mxCell id="_7XjOBUv1tHCZMJbMvrB-128" value="&lt;font style=&quot;font-size: 6px;&quot;&gt;SP&lt;/font&gt;" style="rounded=0;whiteSpace=wrap;html=1;verticalAlign=middle;fillColor=#f5f5f5;fontColor=#333333;strokeColor=#666666;strokeWidth=0.5;direction=south;align=center;fontSize=6;" parent="1" vertex="1">
          <mxGeometry x="430" y="222" width="30" height="30" as="geometry" />
        </mxCell>
        <mxCell id="_7XjOBUv1tHCZMJbMvrB-129" value="X" style="rounded=0;whiteSpace=wrap;html=1;verticalAlign=middle;fillColor=#C4C4C4;fontColor=#333333;strokeColor=#666666;strokeWidth=0.5;direction=south;align=center;fontSize=6;" parent="1" vertex="1">
          <mxGeometry x="460" y="222" width="30" height="30" as="geometry" />
        </mxCell>
        <mxCell id="_7XjOBUv1tHCZMJbMvrB-130" value="&lt;font style=&quot;font-size: 6px;&quot;&gt;S&lt;/font&gt;" style="rounded=0;whiteSpace=wrap;html=1;verticalAlign=middle;fillColor=#f5f5f5;fontColor=#333333;strokeColor=#666666;strokeWidth=0.5;direction=south;fontSize=6;" parent="1" vertex="1">
          <mxGeometry x="370" y="192" width="30" height="30" as="geometry" />
        </mxCell>
        <mxCell id="_7XjOBUv1tHCZMJbMvrB-131" value="&lt;font style=&quot;font-size: 6px;&quot;&gt;W&lt;/font&gt;" style="rounded=0;whiteSpace=wrap;html=1;verticalAlign=middle;fillColor=#f5f5f5;fontColor=#333333;strokeColor=#666666;strokeWidth=0.5;direction=south;align=center;fontSize=6;" parent="1" vertex="1">
          <mxGeometry x="400" y="192" width="30" height="30" as="geometry" />
        </mxCell>
        <mxCell id="_7XjOBUv1tHCZMJbMvrB-132" value="&lt;font style=&quot;font-size: 6px;&quot;&gt;D&lt;br style=&quot;font-size: 6px;&quot;&gt;&lt;/font&gt;" style="rounded=0;whiteSpace=wrap;html=1;verticalAlign=middle;fillColor=#f5f5f5;fontColor=#333333;strokeColor=#666666;strokeWidth=0.5;direction=south;align=center;fontSize=6;" parent="1" vertex="1">
          <mxGeometry x="430" y="192" width="30" height="30" as="geometry" />
        </mxCell>
        <mxCell id="_7XjOBUv1tHCZMJbMvrB-133" value="&lt;font style=&quot;font-size: 6px;&quot;&gt;C&lt;/font&gt;" style="rounded=0;whiteSpace=wrap;html=1;verticalAlign=middle;fillColor=#f5f5f5;fontColor=#333333;strokeColor=#666666;strokeWidth=0.5;direction=south;align=center;fontSize=6;" parent="1" vertex="1">
          <mxGeometry x="460" y="192" width="30" height="30" as="geometry" />
        </mxCell>
        <mxCell id="_7XjOBUv1tHCZMJbMvrB-134" value="&lt;font style=&quot;font-size: 6px;&quot;&gt;LA&lt;/font&gt;" style="rounded=0;whiteSpace=wrap;html=1;verticalAlign=middle;fillColor=#f5f5f5;fontColor=#333333;strokeColor=#666666;strokeWidth=0.5;direction=south;fontSize=6;" parent="1" vertex="1">
          <mxGeometry x="370" y="162" width="30" height="30" as="geometry" />
        </mxCell>
        <mxCell id="_7XjOBUv1tHCZMJbMvrB-135" value="LO" style="rounded=0;whiteSpace=wrap;html=1;verticalAlign=middle;fillColor=#f5f5f5;fontColor=#333333;strokeColor=#666666;strokeWidth=0.5;direction=south;align=center;fontSize=6;" parent="1" vertex="1">
          <mxGeometry x="400" y="162" width="30" height="30" as="geometry" />
        </mxCell>
        <mxCell id="_7XjOBUv1tHCZMJbMvrB-136" value="&lt;font style=&quot;font-size: 6px;&quot;&gt;V&lt;/font&gt;" style="rounded=0;whiteSpace=wrap;html=1;verticalAlign=middle;fillColor=#f5f5f5;fontColor=#333333;strokeColor=#666666;strokeWidth=0.5;direction=south;align=center;fontSize=6;" parent="1" vertex="1">
          <mxGeometry x="430" y="162" width="30" height="30" as="geometry" />
        </mxCell>
        <mxCell id="_7XjOBUv1tHCZMJbMvrB-137" value="&lt;font style=&quot;font-size: 6px;&quot;&gt;R&lt;/font&gt;" style="rounded=0;whiteSpace=wrap;html=1;verticalAlign=middle;fillColor=#f5f5f5;fontColor=#333333;strokeColor=#666666;strokeWidth=0.5;direction=south;align=center;fontSize=6;" parent="1" vertex="1">
          <mxGeometry x="460" y="162" width="30" height="30" as="geometry" />
        </mxCell>
        <mxCell id="_7XjOBUv1tHCZMJbMvrB-138" value="X" style="rounded=0;whiteSpace=wrap;html=1;verticalAlign=middle;fillColor=#C4C4C4;fontColor=#333333;strokeColor=#666666;strokeWidth=0.5;direction=south;fontSize=6;" parent="1" vertex="1">
          <mxGeometry x="370" y="132" width="30" height="30" as="geometry" />
        </mxCell>
        <mxCell id="_7XjOBUv1tHCZMJbMvrB-139" value="&lt;font style=&quot;font-size: 6px;&quot;&gt;A&lt;/font&gt;" style="rounded=0;whiteSpace=wrap;html=1;verticalAlign=middle;fillColor=#f5f5f5;fontColor=#333333;strokeColor=#666666;strokeWidth=0.5;direction=south;align=center;fontSize=6;" parent="1" vertex="1">
          <mxGeometry x="400" y="132" width="30" height="30" as="geometry" />
        </mxCell>
        <mxCell id="_7XjOBUv1tHCZMJbMvrB-140" value="&lt;font style=&quot;font-size: 6px;&quot;&gt;I&lt;/font&gt;" style="rounded=0;whiteSpace=wrap;html=1;verticalAlign=middle;fillColor=#f5f5f5;fontColor=#333333;strokeColor=#666666;strokeWidth=0.5;direction=south;align=center;fontSize=6;" parent="1" vertex="1">
          <mxGeometry x="430" y="132" width="30" height="30" as="geometry" />
        </mxCell>
        <mxCell id="_7XjOBUv1tHCZMJbMvrB-141" value="&lt;font style=&quot;font-size: 6px;&quot;&gt;T&lt;/font&gt;" style="rounded=0;whiteSpace=wrap;html=1;verticalAlign=middle;fillColor=#f5f5f5;fontColor=#333333;strokeColor=#666666;strokeWidth=0.5;direction=south;align=center;fontSize=6;" parent="1" vertex="1">
          <mxGeometry x="460" y="132" width="30" height="30" as="geometry" />
        </mxCell>
        <mxCell id="_7XjOBUv1tHCZMJbMvrB-142" value="X" style="rounded=0;whiteSpace=wrap;html=1;verticalAlign=middle;fillColor=#C4C4C4;fontColor=#333333;strokeColor=#666666;strokeWidth=0.5;direction=south;fontSize=6;" parent="1" vertex="1">
          <mxGeometry x="370" y="252" width="30" height="30" as="geometry" />
        </mxCell>
        <mxCell id="_7XjOBUv1tHCZMJbMvrB-143" value="&lt;font style=&quot;font-size: 6px;&quot;&gt;C&lt;/font&gt;" style="rounded=0;whiteSpace=wrap;html=1;verticalAlign=middle;fillColor=#f5f5f5;fontColor=#333333;strokeColor=#666666;strokeWidth=0.5;direction=south;align=center;fontSize=6;" parent="1" vertex="1">
          <mxGeometry x="400" y="252" width="30" height="30" as="geometry" />
        </mxCell>
        <mxCell id="_7XjOBUv1tHCZMJbMvrB-144" value="&lt;font style=&quot;font-size: 6px;&quot;&gt;A&lt;/font&gt;" style="rounded=0;whiteSpace=wrap;html=1;verticalAlign=middle;fillColor=#f5f5f5;fontColor=#333333;strokeColor=#666666;strokeWidth=0.5;direction=south;align=center;fontSize=6;" parent="1" vertex="1">
          <mxGeometry x="430" y="252" width="30" height="30" as="geometry" />
        </mxCell>
        <mxCell id="_7XjOBUv1tHCZMJbMvrB-145" value="&lt;font style=&quot;font-size: 6px;&quot;&gt;S&lt;/font&gt;" style="rounded=0;whiteSpace=wrap;html=1;verticalAlign=middle;fillColor=#f5f5f5;fontColor=#333333;strokeColor=#666666;strokeWidth=0.5;direction=south;align=center;fontSize=6;" parent="1" vertex="1">
          <mxGeometry x="460" y="252" width="30" height="30" as="geometry" />
        </mxCell>
        <mxCell id="_7XjOBUv1tHCZMJbMvrB-23" value="X" style="rounded=0;whiteSpace=wrap;html=1;verticalAlign=middle;fillColor=#C4C4C4;fontColor=#333333;strokeColor=#666666;strokeWidth=0.5;direction=south;fontSize=6;" parent="1" vertex="1">
          <mxGeometry x="367" y="106" width="30" height="30" as="geometry" />
        </mxCell>
        <mxCell id="_7XjOBUv1tHCZMJbMvrB-25" value="&lt;font style=&quot;font-size: 6px;&quot;&gt;W&lt;/font&gt;" style="rounded=0;whiteSpace=wrap;html=1;verticalAlign=middle;fillColor=#f5f5f5;fontColor=#333333;strokeColor=#666666;strokeWidth=0.5;direction=south;align=center;fontSize=6;" parent="1" vertex="1">
          <mxGeometry x="397" y="106" width="30" height="30" as="geometry" />
        </mxCell>
        <mxCell id="_7XjOBUv1tHCZMJbMvrB-26" value="&lt;font style=&quot;font-size: 6px;&quot;&gt;L&lt;/font&gt;" style="rounded=0;whiteSpace=wrap;html=1;verticalAlign=middle;fillColor=#f5f5f5;fontColor=#333333;strokeColor=#666666;strokeWidth=0.5;direction=south;align=center;fontSize=6;" parent="1" vertex="1">
          <mxGeometry x="427" y="106" width="30" height="30" as="geometry" />
        </mxCell>
        <mxCell id="_7XjOBUv1tHCZMJbMvrB-27" value="X" style="rounded=0;whiteSpace=wrap;html=1;verticalAlign=middle;fillColor=#C4C4C4;fontColor=#333333;strokeColor=#666666;strokeWidth=0.5;direction=south;align=center;fontSize=6;" parent="1" vertex="1">
          <mxGeometry x="457" y="106" width="30" height="30" as="geometry" />
        </mxCell>
        <mxCell id="_7XjOBUv1tHCZMJbMvrB-28" value="X" style="rounded=0;whiteSpace=wrap;html=1;verticalAlign=middle;fillColor=#C4C4C4;fontColor=#333333;strokeColor=#666666;strokeWidth=0.5;direction=south;fontSize=6;" parent="1" vertex="1">
          <mxGeometry x="367" y="226" width="30" height="30" as="geometry" />
        </mxCell>
        <mxCell id="_7XjOBUv1tHCZMJbMvrB-29" value="&lt;font style=&quot;font-size: 6px;&quot;&gt;SU&lt;/font&gt;" style="rounded=0;whiteSpace=wrap;html=1;verticalAlign=middle;fillColor=#f5f5f5;fontColor=#333333;strokeColor=#666666;strokeWidth=0.5;direction=south;align=center;fontSize=6;" parent="1" vertex="1">
          <mxGeometry x="397" y="226" width="30" height="30" as="geometry" />
        </mxCell>
        <mxCell id="_7XjOBUv1tHCZMJbMvrB-30" value="&lt;font style=&quot;font-size: 6px;&quot;&gt;SP&lt;/font&gt;" style="rounded=0;whiteSpace=wrap;html=1;verticalAlign=middle;fillColor=#f5f5f5;fontColor=#333333;strokeColor=#666666;strokeWidth=0.5;direction=south;align=center;fontSize=6;" parent="1" vertex="1">
          <mxGeometry x="427" y="226" width="30" height="30" as="geometry" />
        </mxCell>
        <mxCell id="_7XjOBUv1tHCZMJbMvrB-31" value="X" style="rounded=0;whiteSpace=wrap;html=1;verticalAlign=middle;fillColor=#C4C4C4;fontColor=#333333;strokeColor=#666666;strokeWidth=0.5;direction=south;align=center;fontSize=6;" parent="1" vertex="1">
          <mxGeometry x="457" y="226" width="30" height="30" as="geometry" />
        </mxCell>
        <mxCell id="_7XjOBUv1tHCZMJbMvrB-32" value="&lt;font style=&quot;font-size: 6px;&quot;&gt;S&lt;/font&gt;" style="rounded=0;whiteSpace=wrap;html=1;verticalAlign=middle;fillColor=#f5f5f5;fontColor=#333333;strokeColor=#666666;strokeWidth=0.5;direction=south;fontSize=6;" parent="1" vertex="1">
          <mxGeometry x="367" y="196" width="30" height="30" as="geometry" />
        </mxCell>
        <mxCell id="_7XjOBUv1tHCZMJbMvrB-33" value="&lt;font style=&quot;font-size: 6px;&quot;&gt;W&lt;/font&gt;" style="rounded=0;whiteSpace=wrap;html=1;verticalAlign=middle;fillColor=#f5f5f5;fontColor=#333333;strokeColor=#666666;strokeWidth=0.5;direction=south;align=center;fontSize=6;" parent="1" vertex="1">
          <mxGeometry x="397" y="196" width="30" height="30" as="geometry" />
        </mxCell>
        <mxCell id="_7XjOBUv1tHCZMJbMvrB-34" value="&lt;font style=&quot;font-size: 6px;&quot;&gt;D&lt;br style=&quot;font-size: 6px;&quot;&gt;&lt;/font&gt;" style="rounded=0;whiteSpace=wrap;html=1;verticalAlign=middle;fillColor=#f5f5f5;fontColor=#333333;strokeColor=#666666;strokeWidth=0.5;direction=south;align=center;fontSize=6;" parent="1" vertex="1">
          <mxGeometry x="427" y="196" width="30" height="30" as="geometry" />
        </mxCell>
        <mxCell id="_7XjOBUv1tHCZMJbMvrB-35" value="&lt;font style=&quot;font-size: 6px;&quot;&gt;C&lt;/font&gt;" style="rounded=0;whiteSpace=wrap;html=1;verticalAlign=middle;fillColor=#f5f5f5;fontColor=#333333;strokeColor=#666666;strokeWidth=0.5;direction=south;align=center;fontSize=6;" parent="1" vertex="1">
          <mxGeometry x="457" y="196" width="30" height="30" as="geometry" />
        </mxCell>
        <mxCell id="_7XjOBUv1tHCZMJbMvrB-36" value="&lt;font style=&quot;font-size: 6px;&quot;&gt;LA&lt;/font&gt;" style="rounded=0;whiteSpace=wrap;html=1;verticalAlign=middle;fillColor=#f5f5f5;fontColor=#333333;strokeColor=#666666;strokeWidth=0.5;direction=south;fontSize=6;" parent="1" vertex="1">
          <mxGeometry x="367" y="166" width="30" height="30" as="geometry" />
        </mxCell>
        <mxCell id="_7XjOBUv1tHCZMJbMvrB-37" value="LO" style="rounded=0;whiteSpace=wrap;html=1;verticalAlign=middle;fillColor=#f5f5f5;fontColor=#333333;strokeColor=#666666;strokeWidth=0.5;direction=south;align=center;fontSize=6;" parent="1" vertex="1">
          <mxGeometry x="397" y="166" width="30" height="30" as="geometry" />
        </mxCell>
        <mxCell id="_7XjOBUv1tHCZMJbMvrB-38" value="&lt;font style=&quot;font-size: 6px;&quot;&gt;V&lt;/font&gt;" style="rounded=0;whiteSpace=wrap;html=1;verticalAlign=middle;fillColor=#f5f5f5;fontColor=#333333;strokeColor=#666666;strokeWidth=0.5;direction=south;align=center;fontSize=6;" parent="1" vertex="1">
          <mxGeometry x="427" y="166" width="30" height="30" as="geometry" />
        </mxCell>
        <mxCell id="_7XjOBUv1tHCZMJbMvrB-39" value="&lt;font style=&quot;font-size: 6px;&quot;&gt;R&lt;/font&gt;" style="rounded=0;whiteSpace=wrap;html=1;verticalAlign=middle;fillColor=#f5f5f5;fontColor=#333333;strokeColor=#666666;strokeWidth=0.5;direction=south;align=center;fontSize=6;" parent="1" vertex="1">
          <mxGeometry x="457" y="166" width="30" height="30" as="geometry" />
        </mxCell>
        <mxCell id="_7XjOBUv1tHCZMJbMvrB-40" value="X" style="rounded=0;whiteSpace=wrap;html=1;verticalAlign=middle;fillColor=#C4C4C4;fontColor=#333333;strokeColor=#666666;strokeWidth=0.5;direction=south;fontSize=6;" parent="1" vertex="1">
          <mxGeometry x="367" y="136" width="30" height="30" as="geometry" />
        </mxCell>
        <mxCell id="_7XjOBUv1tHCZMJbMvrB-41" value="&lt;font style=&quot;font-size: 6px;&quot;&gt;A&lt;/font&gt;" style="rounded=0;whiteSpace=wrap;html=1;verticalAlign=middle;fillColor=#f5f5f5;fontColor=#333333;strokeColor=#666666;strokeWidth=0.5;direction=south;align=center;fontSize=6;" parent="1" vertex="1">
          <mxGeometry x="397" y="136" width="30" height="30" as="geometry" />
        </mxCell>
        <mxCell id="_7XjOBUv1tHCZMJbMvrB-42" value="&lt;font style=&quot;font-size: 6px;&quot;&gt;I&lt;/font&gt;" style="rounded=0;whiteSpace=wrap;html=1;verticalAlign=middle;fillColor=#f5f5f5;fontColor=#333333;strokeColor=#666666;strokeWidth=0.5;direction=south;align=center;fontSize=6;" parent="1" vertex="1">
          <mxGeometry x="427" y="136" width="30" height="30" as="geometry" />
        </mxCell>
        <mxCell id="_7XjOBUv1tHCZMJbMvrB-43" value="&lt;font style=&quot;font-size: 6px;&quot;&gt;T&lt;/font&gt;" style="rounded=0;whiteSpace=wrap;html=1;verticalAlign=middle;fillColor=#f5f5f5;fontColor=#333333;strokeColor=#666666;strokeWidth=0.5;direction=south;align=center;fontSize=6;" parent="1" vertex="1">
          <mxGeometry x="457" y="136" width="30" height="30" as="geometry" />
        </mxCell>
        <mxCell id="_7XjOBUv1tHCZMJbMvrB-44" value="X" style="rounded=0;whiteSpace=wrap;html=1;verticalAlign=middle;fillColor=#C4C4C4;fontColor=#333333;strokeColor=#666666;strokeWidth=0.5;direction=south;fontSize=6;" parent="1" vertex="1">
          <mxGeometry x="367" y="256" width="30" height="30" as="geometry" />
        </mxCell>
        <mxCell id="_7XjOBUv1tHCZMJbMvrB-45" value="&lt;font style=&quot;font-size: 6px;&quot;&gt;C&lt;/font&gt;" style="rounded=0;whiteSpace=wrap;html=1;verticalAlign=middle;fillColor=#f5f5f5;fontColor=#333333;strokeColor=#666666;strokeWidth=0.5;direction=south;align=center;fontSize=6;" parent="1" vertex="1">
          <mxGeometry x="397" y="256" width="30" height="30" as="geometry" />
        </mxCell>
        <mxCell id="_7XjOBUv1tHCZMJbMvrB-46" value="&lt;font style=&quot;font-size: 6px;&quot;&gt;A&lt;/font&gt;" style="rounded=0;whiteSpace=wrap;html=1;verticalAlign=middle;fillColor=#f5f5f5;fontColor=#333333;strokeColor=#666666;strokeWidth=0.5;direction=south;align=center;fontSize=6;" parent="1" vertex="1">
          <mxGeometry x="427" y="256" width="30" height="30" as="geometry" />
        </mxCell>
        <mxCell id="_7XjOBUv1tHCZMJbMvrB-47" value="&lt;font style=&quot;font-size: 6px;&quot;&gt;S&lt;/font&gt;" style="rounded=0;whiteSpace=wrap;html=1;verticalAlign=middle;fillColor=#f5f5f5;fontColor=#333333;strokeColor=#666666;strokeWidth=0.5;direction=south;align=center;fontSize=6;" parent="1" vertex="1">
          <mxGeometry x="457" y="256" width="30" height="30" as="geometry" />
        </mxCell>
        <mxCell id="_7XjOBUv1tHCZMJbMvrB-62" value="X" style="rounded=0;whiteSpace=wrap;html=1;verticalAlign=middle;fillColor=#C4C4C4;fontColor=#333333;strokeColor=#666666;strokeWidth=0.5;direction=south;fontSize=6;" parent="1" vertex="1">
          <mxGeometry x="363" y="110" width="30" height="30" as="geometry" />
        </mxCell>
        <mxCell id="_7XjOBUv1tHCZMJbMvrB-63" value="&lt;font style=&quot;font-size: 6px;&quot;&gt;W&lt;/font&gt;" style="rounded=0;whiteSpace=wrap;html=1;verticalAlign=middle;fillColor=#f5f5f5;fontColor=#333333;strokeColor=#666666;strokeWidth=0.5;direction=south;align=center;fontSize=6;" parent="1" vertex="1">
          <mxGeometry x="393" y="110" width="30" height="30" as="geometry" />
        </mxCell>
        <mxCell id="_7XjOBUv1tHCZMJbMvrB-64" value="&lt;font style=&quot;font-size: 6px;&quot;&gt;L&lt;/font&gt;" style="rounded=0;whiteSpace=wrap;html=1;verticalAlign=middle;fillColor=#f5f5f5;fontColor=#333333;strokeColor=#666666;strokeWidth=0.5;direction=south;align=center;fontSize=6;" parent="1" vertex="1">
          <mxGeometry x="423" y="110" width="30" height="30" as="geometry" />
        </mxCell>
        <mxCell id="_7XjOBUv1tHCZMJbMvrB-65" value="X" style="rounded=0;whiteSpace=wrap;html=1;verticalAlign=middle;fillColor=#C4C4C4;fontColor=#333333;strokeColor=#666666;strokeWidth=0.5;direction=south;align=center;fontSize=6;" parent="1" vertex="1">
          <mxGeometry x="453" y="110" width="30" height="30" as="geometry" />
        </mxCell>
        <mxCell id="_7XjOBUv1tHCZMJbMvrB-66" value="X" style="rounded=0;whiteSpace=wrap;html=1;verticalAlign=middle;fillColor=#C4C4C4;fontColor=#333333;strokeColor=#666666;strokeWidth=0.5;direction=south;fontSize=6;" parent="1" vertex="1">
          <mxGeometry x="363" y="230" width="30" height="30" as="geometry" />
        </mxCell>
        <mxCell id="_7XjOBUv1tHCZMJbMvrB-67" value="&lt;font style=&quot;font-size: 6px;&quot;&gt;SU&lt;/font&gt;" style="rounded=0;whiteSpace=wrap;html=1;verticalAlign=middle;fillColor=#f5f5f5;fontColor=#333333;strokeColor=#666666;strokeWidth=0.5;direction=south;align=center;fontSize=6;" parent="1" vertex="1">
          <mxGeometry x="393" y="230" width="30" height="30" as="geometry" />
        </mxCell>
        <mxCell id="_7XjOBUv1tHCZMJbMvrB-68" value="&lt;font style=&quot;font-size: 6px;&quot;&gt;SP&lt;/font&gt;" style="rounded=0;whiteSpace=wrap;html=1;verticalAlign=middle;fillColor=#f5f5f5;fontColor=#333333;strokeColor=#666666;strokeWidth=0.5;direction=south;align=center;fontSize=6;" parent="1" vertex="1">
          <mxGeometry x="423" y="230" width="30" height="30" as="geometry" />
        </mxCell>
        <mxCell id="_7XjOBUv1tHCZMJbMvrB-69" value="X" style="rounded=0;whiteSpace=wrap;html=1;verticalAlign=middle;fillColor=#C4C4C4;fontColor=#333333;strokeColor=#666666;strokeWidth=0.5;direction=south;align=center;fontSize=6;" parent="1" vertex="1">
          <mxGeometry x="453" y="230" width="30" height="30" as="geometry" />
        </mxCell>
        <mxCell id="_7XjOBUv1tHCZMJbMvrB-70" value="&lt;font style=&quot;font-size: 6px;&quot;&gt;S&lt;/font&gt;" style="rounded=0;whiteSpace=wrap;html=1;verticalAlign=middle;fillColor=#f5f5f5;fontColor=#333333;strokeColor=#666666;strokeWidth=0.5;direction=south;fontSize=6;" parent="1" vertex="1">
          <mxGeometry x="363" y="200" width="30" height="30" as="geometry" />
        </mxCell>
        <mxCell id="_7XjOBUv1tHCZMJbMvrB-71" value="&lt;font style=&quot;font-size: 6px;&quot;&gt;W&lt;/font&gt;" style="rounded=0;whiteSpace=wrap;html=1;verticalAlign=middle;fillColor=#f5f5f5;fontColor=#333333;strokeColor=#666666;strokeWidth=0.5;direction=south;align=center;fontSize=6;" parent="1" vertex="1">
          <mxGeometry x="393" y="200" width="30" height="30" as="geometry" />
        </mxCell>
        <mxCell id="_7XjOBUv1tHCZMJbMvrB-72" value="&lt;font style=&quot;font-size: 6px;&quot;&gt;D&lt;br style=&quot;font-size: 6px;&quot;&gt;&lt;/font&gt;" style="rounded=0;whiteSpace=wrap;html=1;verticalAlign=middle;fillColor=#f5f5f5;fontColor=#333333;strokeColor=#666666;strokeWidth=0.5;direction=south;align=center;fontSize=6;" parent="1" vertex="1">
          <mxGeometry x="423" y="200" width="30" height="30" as="geometry" />
        </mxCell>
        <mxCell id="_7XjOBUv1tHCZMJbMvrB-73" value="&lt;font style=&quot;font-size: 6px;&quot;&gt;C&lt;/font&gt;" style="rounded=0;whiteSpace=wrap;html=1;verticalAlign=middle;fillColor=#f5f5f5;fontColor=#333333;strokeColor=#666666;strokeWidth=0.5;direction=south;align=center;fontSize=6;" parent="1" vertex="1">
          <mxGeometry x="453" y="200" width="30" height="30" as="geometry" />
        </mxCell>
        <mxCell id="_7XjOBUv1tHCZMJbMvrB-74" value="&lt;font style=&quot;font-size: 6px;&quot;&gt;LA&lt;/font&gt;" style="rounded=0;whiteSpace=wrap;html=1;verticalAlign=middle;fillColor=#f5f5f5;fontColor=#333333;strokeColor=#666666;strokeWidth=0.5;direction=south;fontSize=6;" parent="1" vertex="1">
          <mxGeometry x="363" y="170" width="30" height="30" as="geometry" />
        </mxCell>
        <mxCell id="_7XjOBUv1tHCZMJbMvrB-75" value="LO" style="rounded=0;whiteSpace=wrap;html=1;verticalAlign=middle;fillColor=#f5f5f5;fontColor=#333333;strokeColor=#666666;strokeWidth=0.5;direction=south;align=center;fontSize=6;" parent="1" vertex="1">
          <mxGeometry x="393" y="170" width="30" height="30" as="geometry" />
        </mxCell>
        <mxCell id="_7XjOBUv1tHCZMJbMvrB-76" value="&lt;font style=&quot;font-size: 6px;&quot;&gt;V&lt;/font&gt;" style="rounded=0;whiteSpace=wrap;html=1;verticalAlign=middle;fillColor=#f5f5f5;fontColor=#333333;strokeColor=#666666;strokeWidth=0.5;direction=south;align=center;fontSize=6;" parent="1" vertex="1">
          <mxGeometry x="423" y="170" width="30" height="30" as="geometry" />
        </mxCell>
        <mxCell id="_7XjOBUv1tHCZMJbMvrB-77" value="&lt;font style=&quot;font-size: 6px;&quot;&gt;R&lt;/font&gt;" style="rounded=0;whiteSpace=wrap;html=1;verticalAlign=middle;fillColor=#f5f5f5;fontColor=#333333;strokeColor=#666666;strokeWidth=0.5;direction=south;align=center;fontSize=6;" parent="1" vertex="1">
          <mxGeometry x="453" y="170" width="30" height="30" as="geometry" />
        </mxCell>
        <mxCell id="_7XjOBUv1tHCZMJbMvrB-78" value="X" style="rounded=0;whiteSpace=wrap;html=1;verticalAlign=middle;fillColor=#C4C4C4;fontColor=#333333;strokeColor=#666666;strokeWidth=0.5;direction=south;fontSize=6;" parent="1" vertex="1">
          <mxGeometry x="363" y="140" width="30" height="30" as="geometry" />
        </mxCell>
        <mxCell id="_7XjOBUv1tHCZMJbMvrB-79" value="&lt;font style=&quot;font-size: 6px;&quot;&gt;A&lt;/font&gt;" style="rounded=0;whiteSpace=wrap;html=1;verticalAlign=middle;fillColor=#f5f5f5;fontColor=#333333;strokeColor=#666666;strokeWidth=0.5;direction=south;align=center;fontSize=6;" parent="1" vertex="1">
          <mxGeometry x="393" y="140" width="30" height="30" as="geometry" />
        </mxCell>
        <mxCell id="_7XjOBUv1tHCZMJbMvrB-80" value="&lt;font style=&quot;font-size: 6px;&quot;&gt;I&lt;/font&gt;" style="rounded=0;whiteSpace=wrap;html=1;verticalAlign=middle;fillColor=#f5f5f5;fontColor=#333333;strokeColor=#666666;strokeWidth=0.5;direction=south;align=center;fontSize=6;" parent="1" vertex="1">
          <mxGeometry x="423" y="140" width="30" height="30" as="geometry" />
        </mxCell>
        <mxCell id="_7XjOBUv1tHCZMJbMvrB-81" value="&lt;font style=&quot;font-size: 6px;&quot;&gt;T&lt;/font&gt;" style="rounded=0;whiteSpace=wrap;html=1;verticalAlign=middle;fillColor=#f5f5f5;fontColor=#333333;strokeColor=#666666;strokeWidth=0.5;direction=south;align=center;fontSize=6;" parent="1" vertex="1">
          <mxGeometry x="453" y="140" width="30" height="30" as="geometry" />
        </mxCell>
        <mxCell id="_7XjOBUv1tHCZMJbMvrB-82" value="X" style="rounded=0;whiteSpace=wrap;html=1;verticalAlign=middle;fillColor=#C4C4C4;fontColor=#333333;strokeColor=#666666;strokeWidth=0.5;direction=south;fontSize=6;" parent="1" vertex="1">
          <mxGeometry x="363" y="260" width="30" height="30" as="geometry" />
        </mxCell>
        <mxCell id="_7XjOBUv1tHCZMJbMvrB-83" value="&lt;font style=&quot;font-size: 6px;&quot;&gt;C&lt;/font&gt;" style="rounded=0;whiteSpace=wrap;html=1;verticalAlign=middle;fillColor=#f5f5f5;fontColor=#333333;strokeColor=#666666;strokeWidth=0.5;direction=south;align=center;fontSize=6;" parent="1" vertex="1">
          <mxGeometry x="393" y="260" width="30" height="30" as="geometry" />
        </mxCell>
        <mxCell id="_7XjOBUv1tHCZMJbMvrB-84" value="&lt;font style=&quot;font-size: 6px;&quot;&gt;A&lt;/font&gt;" style="rounded=0;whiteSpace=wrap;html=1;verticalAlign=middle;fillColor=#f5f5f5;fontColor=#333333;strokeColor=#666666;strokeWidth=0.5;direction=south;align=center;fontSize=6;" parent="1" vertex="1">
          <mxGeometry x="423" y="260" width="30" height="30" as="geometry" />
        </mxCell>
        <mxCell id="_7XjOBUv1tHCZMJbMvrB-85" value="&lt;font style=&quot;font-size: 6px;&quot;&gt;S&lt;/font&gt;" style="rounded=0;whiteSpace=wrap;html=1;verticalAlign=middle;fillColor=#f5f5f5;fontColor=#333333;strokeColor=#666666;strokeWidth=0.5;direction=south;align=center;fontSize=6;" parent="1" vertex="1">
          <mxGeometry x="453" y="260" width="30" height="30" as="geometry" />
        </mxCell>
        <mxCell id="_7XjOBUv1tHCZMJbMvrB-146" value="" style="endArrow=classic;html=1;rounded=0;" parent="1" edge="1">
          <mxGeometry width="50" height="50" relative="1" as="geometry">
            <mxPoint x="325" y="200" as="sourcePoint" />
            <mxPoint x="355" y="200" as="targetPoint" />
          </mxGeometry>
        </mxCell>
        <mxCell id="_7XjOBUv1tHCZMJbMvrB-147" value="Rows Sample" style="rounded=0;whiteSpace=wrap;html=1;horizontal=0;fillColor=#f5f5f5;fontColor=#333333;strokeColor=#666666;fontSize=9;" parent="1" vertex="1">
          <mxGeometry x="37" y="110" width="25" height="180" as="geometry" />
        </mxCell>
        <mxCell id="_7XjOBUv1tHCZMJbMvrB-203" value="" style="group" parent="1" vertex="1" connectable="0">
          <mxGeometry x="84" y="106" width="220" height="180" as="geometry" />
        </mxCell>
        <mxCell id="_7XjOBUv1tHCZMJbMvrB-174" value="&lt;span style=&quot;border-color: var(--border-color); font-size: 6px;&quot;&gt;&lt;font style=&quot;font-size: 6px;&quot;&gt;Temporary&lt;br style=&quot;font-size: 6px;&quot;&gt;Features&lt;br style=&quot;font-size: 6px;&quot;&gt;&lt;/font&gt;&lt;/span&gt;" style="rounded=0;whiteSpace=wrap;html=1;strokeWidth=0.5;align=center;verticalAlign=middle;fontSize=6;fillColor=#cdeb8b;strokeColor=#36393d;" parent="_7XjOBUv1tHCZMJbMvrB-203" vertex="1">
          <mxGeometry x="30" y="90" width="70" height="30" as="geometry" />
        </mxCell>
        <mxCell id="_7XjOBUv1tHCZMJbMvrB-175" value="&lt;span style=&quot;border-color: var(--border-color); font-size: 6px;&quot;&gt;&lt;font style=&quot;font-size: 6px;&quot;&gt;Environmental Features&lt;/font&gt;&lt;/span&gt;" style="rounded=0;whiteSpace=wrap;html=1;strokeWidth=0.5;align=center;verticalAlign=middle;fontSize=6;fillColor=#ffff88;strokeColor=#36393d;" parent="_7XjOBUv1tHCZMJbMvrB-203" vertex="1">
          <mxGeometry x="30" width="70" height="30" as="geometry" />
        </mxCell>
        <mxCell id="_7XjOBUv1tHCZMJbMvrB-176" value="&lt;span style=&quot;border-color: var(--border-color); font-size: 6px;&quot;&gt;&lt;font style=&quot;font-size: 6px;&quot;&gt;Driving Limitations&lt;br style=&quot;font-size: 6px;&quot;&gt;Features&lt;br style=&quot;font-size: 6px;&quot;&gt;&lt;/font&gt;&lt;/span&gt;" style="rounded=0;whiteSpace=wrap;html=1;strokeWidth=0.5;align=center;verticalAlign=middle;fontSize=6;fillColor=#cce5ff;strokeColor=#36393d;" parent="_7XjOBUv1tHCZMJbMvrB-203" vertex="1">
          <mxGeometry x="30" y="120" width="70" height="30" as="geometry" />
        </mxCell>
        <mxCell id="_7XjOBUv1tHCZMJbMvrB-177" value="&lt;span style=&quot;border-color: var(--border-color); font-size: 6px;&quot;&gt;&lt;font style=&quot;font-size: 6px;&quot;&gt;Location &amp;amp; Scale Accident&lt;br style=&quot;font-size: 6px;&quot;&gt;Features&lt;br style=&quot;font-size: 6px;&quot;&gt;&lt;/font&gt;&lt;/span&gt;" style="rounded=0;whiteSpace=wrap;html=1;strokeWidth=0.5;align=center;verticalAlign=middle;fontSize=6;fillColor=#eeeeee;strokeColor=#36393d;" parent="_7XjOBUv1tHCZMJbMvrB-203" vertex="1">
          <mxGeometry x="30" y="60" width="70" height="30" as="geometry" />
        </mxCell>
        <mxCell id="_7XjOBUv1tHCZMJbMvrB-178" value="&lt;span style=&quot;font-size: 6px;&quot;&gt;Vehicle Features&lt;/span&gt;" style="rounded=0;whiteSpace=wrap;html=1;strokeWidth=0.5;align=center;verticalAlign=middle;fontSize=6;fillColor=#ffcc99;strokeColor=#36393d;" parent="_7XjOBUv1tHCZMJbMvrB-203" vertex="1">
          <mxGeometry x="30" y="30" width="70" height="30" as="geometry" />
        </mxCell>
        <mxCell id="_7XjOBUv1tHCZMJbMvrB-179" value="&lt;span style=&quot;border-color: var(--border-color); font-size: 6px;&quot;&gt;&lt;font style=&quot;font-size: 6px;&quot;&gt;Victim&lt;br style=&quot;font-size: 6px;&quot;&gt;Features&lt;br style=&quot;font-size: 6px;&quot;&gt;&lt;/font&gt;&lt;/span&gt;" style="rounded=0;whiteSpace=wrap;html=1;strokeWidth=0.5;align=center;verticalAlign=middle;fontSize=6;fillColor=#ffcccc;strokeColor=#36393d;" parent="_7XjOBUv1tHCZMJbMvrB-203" vertex="1">
          <mxGeometry x="30" y="150" width="70" height="30" as="geometry" />
        </mxCell>
        <mxCell id="_7XjOBUv1tHCZMJbMvrB-180" value="&lt;span style=&quot;border-color: var(--border-color); font-size: 6px;&quot;&gt;&lt;font style=&quot;font-size: 6px;&quot;&gt;&lt;b style=&quot;font-size: 6px;&quot;&gt;1&lt;/b&gt;&lt;/font&gt;&lt;/span&gt;" style="rounded=0;whiteSpace=wrap;html=1;strokeWidth=0.5;align=center;verticalAlign=middle;fontSize=6;fillColor=#cdeb8b;strokeColor=#36393d;" parent="_7XjOBUv1tHCZMJbMvrB-203" vertex="1">
          <mxGeometry y="90" width="30" height="30" as="geometry" />
        </mxCell>
        <mxCell id="_7XjOBUv1tHCZMJbMvrB-181" value="&lt;span style=&quot;border-color: var(--border-color); font-size: 6px;&quot;&gt;&lt;font style=&quot;font-size: 6px;&quot;&gt;&lt;b style=&quot;font-size: 6px;&quot;&gt;3&lt;/b&gt;&lt;/font&gt;&lt;/span&gt;" style="rounded=0;whiteSpace=wrap;html=1;strokeWidth=0.5;align=center;verticalAlign=middle;fontSize=6;fillColor=#dae8fc;strokeColor=#000000;" parent="_7XjOBUv1tHCZMJbMvrB-203" vertex="1">
          <mxGeometry y="120" width="30" height="30" as="geometry" />
        </mxCell>
        <mxCell id="_7XjOBUv1tHCZMJbMvrB-182" value="&lt;span style=&quot;border-color: var(--border-color); font-size: 6px;&quot;&gt;&lt;font style=&quot;font-size: 6px;&quot;&gt;&lt;b style=&quot;font-size: 6px;&quot;&gt;2&lt;/b&gt;&lt;/font&gt;&lt;/span&gt;" style="rounded=0;whiteSpace=wrap;html=1;strokeWidth=0.5;align=center;verticalAlign=middle;fontSize=6;fillColor=#EEEEEE;strokeColor=#36393D;fontColor=#333333;" parent="_7XjOBUv1tHCZMJbMvrB-203" vertex="1">
          <mxGeometry y="60" width="30" height="30" as="geometry" />
        </mxCell>
        <mxCell id="_7XjOBUv1tHCZMJbMvrB-183" value="&lt;span style=&quot;font-size: 6px;&quot;&gt;4&lt;/span&gt;" style="rounded=0;whiteSpace=wrap;html=1;strokeWidth=0.5;align=center;verticalAlign=middle;fontSize=6;fillColor=#ffcc99;strokeColor=#36393d;fontStyle=1" parent="_7XjOBUv1tHCZMJbMvrB-203" vertex="1">
          <mxGeometry y="30" width="30" height="30" as="geometry" />
        </mxCell>
        <mxCell id="_7XjOBUv1tHCZMJbMvrB-184" value="&lt;span style=&quot;border-color: var(--border-color); font-size: 6px;&quot;&gt;&lt;font style=&quot;font-size: 6px;&quot;&gt;5&lt;/font&gt;&lt;/span&gt;" style="rounded=0;whiteSpace=wrap;html=1;strokeWidth=0.5;align=center;verticalAlign=middle;fontSize=6;fillColor=#ffcccc;strokeColor=#36393d;fontStyle=1" parent="_7XjOBUv1tHCZMJbMvrB-203" vertex="1">
          <mxGeometry y="150" width="30" height="30" as="geometry" />
        </mxCell>
        <mxCell id="_7XjOBUv1tHCZMJbMvrB-185" value="&lt;span style=&quot;border-color: var(--border-color); font-size: 6px;&quot;&gt;&lt;font style=&quot;font-size: 6px;&quot;&gt;&lt;b style=&quot;font-size: 6px;&quot;&gt;6&lt;/b&gt;&lt;/font&gt;&lt;/span&gt;" style="rounded=0;whiteSpace=wrap;html=1;strokeWidth=0.5;align=center;verticalAlign=middle;fontSize=6;fillColor=#ffff88;strokeColor=#36393d;" parent="_7XjOBUv1tHCZMJbMvrB-203" vertex="1">
          <mxGeometry width="30" height="30" as="geometry" />
        </mxCell>
        <mxCell id="_7XjOBUv1tHCZMJbMvrB-186" value="&lt;font style=&quot;font-size: 6px;&quot;&gt;L&lt;/font&gt;" style="rounded=0;whiteSpace=wrap;html=1;verticalAlign=middle;fillColor=#f5f5f5;fontColor=#333333;strokeColor=#666666;strokeWidth=0.5;direction=south;align=center;fontSize=6;" parent="_7XjOBUv1tHCZMJbMvrB-203" vertex="1">
          <mxGeometry x="100" width="30" height="30" as="geometry" />
        </mxCell>
        <mxCell id="_7XjOBUv1tHCZMJbMvrB-187" value="&lt;font style=&quot;font-size: 6px;&quot;&gt;W&lt;/font&gt;" style="rounded=0;whiteSpace=wrap;html=1;verticalAlign=middle;fillColor=#f5f5f5;fontColor=#333333;strokeColor=#666666;strokeWidth=0.5;direction=south;align=center;fontSize=6;" parent="_7XjOBUv1tHCZMJbMvrB-203" vertex="1">
          <mxGeometry x="130" width="30" height="30" as="geometry" />
        </mxCell>
        <mxCell id="_7XjOBUv1tHCZMJbMvrB-188" value="&lt;font style=&quot;font-size: 6px;&quot;&gt;I&lt;/font&gt;" style="rounded=0;whiteSpace=wrap;html=1;verticalAlign=middle;fillColor=#f5f5f5;fontColor=#333333;strokeColor=#666666;strokeWidth=0.5;direction=south;align=center;fontSize=6;" parent="_7XjOBUv1tHCZMJbMvrB-203" vertex="1">
          <mxGeometry x="100" y="30" width="30" height="30" as="geometry" />
        </mxCell>
        <mxCell id="_7XjOBUv1tHCZMJbMvrB-189" value="&lt;font style=&quot;font-size: 6px;&quot;&gt;A&lt;/font&gt;" style="rounded=0;whiteSpace=wrap;html=1;verticalAlign=middle;fillColor=#f5f5f5;fontColor=#333333;strokeColor=#666666;strokeWidth=0.5;direction=south;align=center;fontSize=6;" parent="_7XjOBUv1tHCZMJbMvrB-203" vertex="1">
          <mxGeometry x="130" y="30" width="30" height="30" as="geometry" />
        </mxCell>
        <mxCell id="_7XjOBUv1tHCZMJbMvrB-190" value="&lt;font style=&quot;font-size: 6px;&quot;&gt;T&lt;/font&gt;" style="rounded=0;whiteSpace=wrap;html=1;verticalAlign=middle;fillColor=#f5f5f5;fontColor=#333333;strokeColor=#666666;strokeWidth=0.5;direction=south;align=center;fontSize=6;" parent="_7XjOBUv1tHCZMJbMvrB-203" vertex="1">
          <mxGeometry x="160" y="30" width="30" height="30" as="geometry" />
        </mxCell>
        <mxCell id="_7XjOBUv1tHCZMJbMvrB-191" value="&lt;font style=&quot;font-size: 6px;&quot;&gt;V&lt;/font&gt;" style="rounded=0;whiteSpace=wrap;html=1;verticalAlign=middle;fillColor=#f5f5f5;fontColor=#333333;strokeColor=#666666;strokeWidth=0.5;direction=south;align=center;fontSize=6;" parent="_7XjOBUv1tHCZMJbMvrB-203" vertex="1">
          <mxGeometry x="100" y="60" width="30" height="30" as="geometry" />
        </mxCell>
        <mxCell id="_7XjOBUv1tHCZMJbMvrB-192" value="LO" style="rounded=0;whiteSpace=wrap;html=1;verticalAlign=middle;fillColor=#f5f5f5;fontColor=#333333;strokeColor=#666666;strokeWidth=0.5;direction=south;align=center;fontSize=6;" parent="_7XjOBUv1tHCZMJbMvrB-203" vertex="1">
          <mxGeometry x="130" y="60" width="30" height="30" as="geometry" />
        </mxCell>
        <mxCell id="_7XjOBUv1tHCZMJbMvrB-193" value="&lt;font style=&quot;font-size: 6px;&quot;&gt;LA&lt;/font&gt;" style="rounded=0;whiteSpace=wrap;html=1;verticalAlign=middle;fillColor=#f5f5f5;fontColor=#333333;strokeColor=#666666;strokeWidth=0.5;direction=south;fontSize=6;" parent="_7XjOBUv1tHCZMJbMvrB-203" vertex="1">
          <mxGeometry x="190" y="60" width="30" height="30" as="geometry" />
        </mxCell>
        <mxCell id="_7XjOBUv1tHCZMJbMvrB-194" value="&lt;font style=&quot;font-size: 6px;&quot;&gt;D&lt;br style=&quot;font-size: 6px;&quot;&gt;&lt;/font&gt;" style="rounded=0;whiteSpace=wrap;html=1;verticalAlign=middle;fillColor=#f5f5f5;fontColor=#333333;strokeColor=#666666;strokeWidth=0.5;direction=south;align=center;fontSize=6;" parent="_7XjOBUv1tHCZMJbMvrB-203" vertex="1">
          <mxGeometry x="100" y="90" width="30" height="30" as="geometry" />
        </mxCell>
        <mxCell id="_7XjOBUv1tHCZMJbMvrB-195" value="&lt;font style=&quot;font-size: 6px;&quot;&gt;W&lt;/font&gt;" style="rounded=0;whiteSpace=wrap;html=1;verticalAlign=middle;fillColor=#f5f5f5;fontColor=#333333;strokeColor=#666666;strokeWidth=0.5;direction=south;align=center;fontSize=6;" parent="_7XjOBUv1tHCZMJbMvrB-203" vertex="1">
          <mxGeometry x="130" y="90" width="30" height="30" as="geometry" />
        </mxCell>
        <mxCell id="_7XjOBUv1tHCZMJbMvrB-196" value="&lt;font style=&quot;font-size: 6px;&quot;&gt;C&lt;/font&gt;" style="rounded=0;whiteSpace=wrap;html=1;verticalAlign=middle;fillColor=#f5f5f5;fontColor=#333333;strokeColor=#666666;strokeWidth=0.5;direction=south;align=center;fontSize=6;" parent="_7XjOBUv1tHCZMJbMvrB-203" vertex="1">
          <mxGeometry x="160" y="90" width="30" height="30" as="geometry" />
        </mxCell>
        <mxCell id="_7XjOBUv1tHCZMJbMvrB-197" value="&lt;font style=&quot;font-size: 6px;&quot;&gt;S&lt;/font&gt;" style="rounded=0;whiteSpace=wrap;html=1;verticalAlign=middle;fillColor=#f5f5f5;fontColor=#333333;strokeColor=#666666;strokeWidth=0.5;direction=south;fontSize=6;" parent="_7XjOBUv1tHCZMJbMvrB-203" vertex="1">
          <mxGeometry x="190" y="90" width="30" height="30" as="geometry" />
        </mxCell>
        <mxCell id="_7XjOBUv1tHCZMJbMvrB-198" value="&lt;font style=&quot;font-size: 6px;&quot;&gt;SP&lt;/font&gt;" style="rounded=0;whiteSpace=wrap;html=1;verticalAlign=middle;fillColor=#f5f5f5;fontColor=#333333;strokeColor=#666666;strokeWidth=0.5;direction=south;align=center;fontSize=6;" parent="_7XjOBUv1tHCZMJbMvrB-203" vertex="1">
          <mxGeometry x="100" y="120" width="30" height="30" as="geometry" />
        </mxCell>
        <mxCell id="_7XjOBUv1tHCZMJbMvrB-199" value="&lt;font style=&quot;font-size: 6px;&quot;&gt;SU&lt;/font&gt;" style="rounded=0;whiteSpace=wrap;html=1;verticalAlign=middle;fillColor=#f5f5f5;fontColor=#333333;strokeColor=#666666;strokeWidth=0.5;direction=south;align=center;fontSize=6;" parent="_7XjOBUv1tHCZMJbMvrB-203" vertex="1">
          <mxGeometry x="130" y="120" width="30" height="30" as="geometry" />
        </mxCell>
        <mxCell id="_7XjOBUv1tHCZMJbMvrB-200" value="&lt;font style=&quot;font-size: 6px;&quot;&gt;A&lt;/font&gt;" style="rounded=0;whiteSpace=wrap;html=1;verticalAlign=middle;fillColor=#f5f5f5;fontColor=#333333;strokeColor=#666666;strokeWidth=0.5;direction=south;align=center;fontSize=6;" parent="_7XjOBUv1tHCZMJbMvrB-203" vertex="1">
          <mxGeometry x="100" y="150" width="30" height="30" as="geometry" />
        </mxCell>
        <mxCell id="_7XjOBUv1tHCZMJbMvrB-201" value="&lt;font style=&quot;font-size: 6px;&quot;&gt;C&lt;/font&gt;" style="rounded=0;whiteSpace=wrap;html=1;verticalAlign=middle;fillColor=#f5f5f5;fontColor=#333333;strokeColor=#666666;strokeWidth=0.5;direction=south;align=center;fontSize=6;" parent="_7XjOBUv1tHCZMJbMvrB-203" vertex="1">
          <mxGeometry x="130" y="150" width="30" height="30" as="geometry" />
        </mxCell>
        <mxCell id="_7XjOBUv1tHCZMJbMvrB-202" value="&lt;font style=&quot;font-size: 6px;&quot;&gt;S&lt;/font&gt;" style="rounded=0;whiteSpace=wrap;html=1;verticalAlign=middle;fillColor=#f5f5f5;fontColor=#333333;strokeColor=#666666;strokeWidth=0.5;direction=south;align=center;fontSize=6;" parent="_7XjOBUv1tHCZMJbMvrB-203" vertex="1">
          <mxGeometry x="160" y="150" width="30" height="30" as="geometry" />
        </mxCell>
        <mxCell id="_7XjOBUv1tHCZMJbMvrB-234" value="&lt;font style=&quot;font-size: 6px;&quot;&gt;R&lt;/font&gt;" style="rounded=0;whiteSpace=wrap;html=1;verticalAlign=middle;fillColor=#f5f5f5;fontColor=#333333;strokeColor=#666666;strokeWidth=0.5;direction=south;align=center;fontSize=6;" parent="_7XjOBUv1tHCZMJbMvrB-203" vertex="1">
          <mxGeometry x="160" y="60" width="30" height="30" as="geometry" />
        </mxCell>
        <mxCell id="_7XjOBUv1tHCZMJbMvrB-236" value="" style="group" parent="1" vertex="1" connectable="0">
          <mxGeometry x="80" y="110" width="220" height="180" as="geometry" />
        </mxCell>
        <mxCell id="_7XjOBUv1tHCZMJbMvrB-237" value="&lt;span style=&quot;border-color: var(--border-color); font-size: 6px;&quot;&gt;&lt;font style=&quot;font-size: 6px;&quot;&gt;Temporary&lt;br style=&quot;font-size: 6px;&quot;&gt;Features&lt;br style=&quot;font-size: 6px;&quot;&gt;&lt;/font&gt;&lt;/span&gt;" style="rounded=0;whiteSpace=wrap;html=1;strokeWidth=0.5;align=center;verticalAlign=middle;fontSize=6;fillColor=#cdeb8b;strokeColor=#36393d;" parent="_7XjOBUv1tHCZMJbMvrB-236" vertex="1">
          <mxGeometry x="30" y="90" width="70" height="30" as="geometry" />
        </mxCell>
        <mxCell id="_7XjOBUv1tHCZMJbMvrB-238" value="&lt;span style=&quot;border-color: var(--border-color); font-size: 6px;&quot;&gt;&lt;font style=&quot;font-size: 6px;&quot;&gt;Environmental Features&lt;/font&gt;&lt;/span&gt;" style="rounded=0;whiteSpace=wrap;html=1;strokeWidth=0.5;align=center;verticalAlign=middle;fontSize=6;fillColor=#ffff88;strokeColor=#36393d;" parent="_7XjOBUv1tHCZMJbMvrB-236" vertex="1">
          <mxGeometry x="30" width="70" height="30" as="geometry" />
        </mxCell>
        <mxCell id="_7XjOBUv1tHCZMJbMvrB-239" value="&lt;span style=&quot;border-color: var(--border-color); font-size: 6px;&quot;&gt;&lt;font style=&quot;font-size: 6px;&quot;&gt;Driving Limitations&lt;br style=&quot;font-size: 6px;&quot;&gt;Features&lt;br style=&quot;font-size: 6px;&quot;&gt;&lt;/font&gt;&lt;/span&gt;" style="rounded=0;whiteSpace=wrap;html=1;strokeWidth=0.5;align=center;verticalAlign=middle;fontSize=6;fillColor=#cce5ff;strokeColor=#36393d;" parent="_7XjOBUv1tHCZMJbMvrB-236" vertex="1">
          <mxGeometry x="30" y="120" width="70" height="30" as="geometry" />
        </mxCell>
        <mxCell id="_7XjOBUv1tHCZMJbMvrB-240" value="&lt;span style=&quot;border-color: var(--border-color); font-size: 6px;&quot;&gt;&lt;font style=&quot;font-size: 6px;&quot;&gt;Location &amp;amp; Scale Accident&lt;br style=&quot;font-size: 6px;&quot;&gt;Features&lt;br style=&quot;font-size: 6px;&quot;&gt;&lt;/font&gt;&lt;/span&gt;" style="rounded=0;whiteSpace=wrap;html=1;strokeWidth=0.5;align=center;verticalAlign=middle;fontSize=6;fillColor=#eeeeee;strokeColor=#36393d;" parent="_7XjOBUv1tHCZMJbMvrB-236" vertex="1">
          <mxGeometry x="30" y="60" width="70" height="30" as="geometry" />
        </mxCell>
        <mxCell id="_7XjOBUv1tHCZMJbMvrB-241" value="&lt;span style=&quot;font-size: 6px;&quot;&gt;Vehicle Features&lt;/span&gt;" style="rounded=0;whiteSpace=wrap;html=1;strokeWidth=0.5;align=center;verticalAlign=middle;fontSize=6;fillColor=#ffcc99;strokeColor=#36393d;" parent="_7XjOBUv1tHCZMJbMvrB-236" vertex="1">
          <mxGeometry x="30" y="30" width="70" height="30" as="geometry" />
        </mxCell>
        <mxCell id="_7XjOBUv1tHCZMJbMvrB-242" value="&lt;span style=&quot;border-color: var(--border-color); font-size: 6px;&quot;&gt;&lt;font style=&quot;font-size: 6px;&quot;&gt;Victim&lt;br style=&quot;font-size: 6px;&quot;&gt;Features&lt;br style=&quot;font-size: 6px;&quot;&gt;&lt;/font&gt;&lt;/span&gt;" style="rounded=0;whiteSpace=wrap;html=1;strokeWidth=0.5;align=center;verticalAlign=middle;fontSize=6;fillColor=#ffcccc;strokeColor=#36393d;" parent="_7XjOBUv1tHCZMJbMvrB-236" vertex="1">
          <mxGeometry x="30" y="150" width="70" height="30" as="geometry" />
        </mxCell>
        <mxCell id="_7XjOBUv1tHCZMJbMvrB-243" value="&lt;span style=&quot;border-color: var(--border-color); font-size: 6px;&quot;&gt;&lt;font style=&quot;font-size: 6px;&quot;&gt;&lt;b style=&quot;font-size: 6px;&quot;&gt;1&lt;/b&gt;&lt;/font&gt;&lt;/span&gt;" style="rounded=0;whiteSpace=wrap;html=1;strokeWidth=0.5;align=center;verticalAlign=middle;fontSize=6;fillColor=#cdeb8b;strokeColor=#36393d;" parent="_7XjOBUv1tHCZMJbMvrB-236" vertex="1">
          <mxGeometry y="90" width="30" height="30" as="geometry" />
        </mxCell>
        <mxCell id="_7XjOBUv1tHCZMJbMvrB-244" value="&lt;span style=&quot;border-color: var(--border-color); font-size: 6px;&quot;&gt;&lt;font style=&quot;font-size: 6px;&quot;&gt;&lt;b style=&quot;font-size: 6px;&quot;&gt;3&lt;/b&gt;&lt;/font&gt;&lt;/span&gt;" style="rounded=0;whiteSpace=wrap;html=1;strokeWidth=0.5;align=center;verticalAlign=middle;fontSize=6;fillColor=#dae8fc;strokeColor=#000000;" parent="_7XjOBUv1tHCZMJbMvrB-236" vertex="1">
          <mxGeometry y="120" width="30" height="30" as="geometry" />
        </mxCell>
        <mxCell id="_7XjOBUv1tHCZMJbMvrB-245" value="&lt;span style=&quot;border-color: var(--border-color); font-size: 6px;&quot;&gt;&lt;font style=&quot;font-size: 6px;&quot;&gt;&lt;b style=&quot;font-size: 6px;&quot;&gt;2&lt;/b&gt;&lt;/font&gt;&lt;/span&gt;" style="rounded=0;whiteSpace=wrap;html=1;strokeWidth=0.5;align=center;verticalAlign=middle;fontSize=6;fillColor=#EEEEEE;strokeColor=#36393D;fontColor=#333333;" parent="_7XjOBUv1tHCZMJbMvrB-236" vertex="1">
          <mxGeometry y="60" width="30" height="30" as="geometry" />
        </mxCell>
        <mxCell id="_7XjOBUv1tHCZMJbMvrB-246" value="&lt;span style=&quot;font-size: 6px;&quot;&gt;4&lt;/span&gt;" style="rounded=0;whiteSpace=wrap;html=1;strokeWidth=0.5;align=center;verticalAlign=middle;fontSize=6;fillColor=#ffcc99;strokeColor=#36393d;fontStyle=1" parent="_7XjOBUv1tHCZMJbMvrB-236" vertex="1">
          <mxGeometry y="30" width="30" height="30" as="geometry" />
        </mxCell>
        <mxCell id="_7XjOBUv1tHCZMJbMvrB-247" value="&lt;span style=&quot;border-color: var(--border-color); font-size: 6px;&quot;&gt;&lt;font style=&quot;font-size: 6px;&quot;&gt;5&lt;/font&gt;&lt;/span&gt;" style="rounded=0;whiteSpace=wrap;html=1;strokeWidth=0.5;align=center;verticalAlign=middle;fontSize=6;fillColor=#ffcccc;strokeColor=#36393d;fontStyle=1" parent="_7XjOBUv1tHCZMJbMvrB-236" vertex="1">
          <mxGeometry y="150" width="30" height="30" as="geometry" />
        </mxCell>
        <mxCell id="_7XjOBUv1tHCZMJbMvrB-248" value="&lt;span style=&quot;border-color: var(--border-color); font-size: 6px;&quot;&gt;&lt;font style=&quot;font-size: 6px;&quot;&gt;&lt;b style=&quot;font-size: 6px;&quot;&gt;6&lt;/b&gt;&lt;/font&gt;&lt;/span&gt;" style="rounded=0;whiteSpace=wrap;html=1;strokeWidth=0.5;align=center;verticalAlign=middle;fontSize=6;fillColor=#ffff88;strokeColor=#36393d;" parent="_7XjOBUv1tHCZMJbMvrB-236" vertex="1">
          <mxGeometry width="30" height="30" as="geometry" />
        </mxCell>
        <mxCell id="_7XjOBUv1tHCZMJbMvrB-249" value="&lt;font style=&quot;font-size: 6px;&quot;&gt;L&lt;/font&gt;" style="rounded=0;whiteSpace=wrap;html=1;verticalAlign=middle;fillColor=#f5f5f5;fontColor=#333333;strokeColor=#666666;strokeWidth=0.5;direction=south;align=center;fontSize=6;" parent="_7XjOBUv1tHCZMJbMvrB-236" vertex="1">
          <mxGeometry x="100" width="30" height="30" as="geometry" />
        </mxCell>
        <mxCell id="_7XjOBUv1tHCZMJbMvrB-250" value="&lt;font style=&quot;font-size: 6px;&quot;&gt;W&lt;/font&gt;" style="rounded=0;whiteSpace=wrap;html=1;verticalAlign=middle;fillColor=#f5f5f5;fontColor=#333333;strokeColor=#666666;strokeWidth=0.5;direction=south;align=center;fontSize=6;" parent="_7XjOBUv1tHCZMJbMvrB-236" vertex="1">
          <mxGeometry x="130" width="30" height="30" as="geometry" />
        </mxCell>
        <mxCell id="_7XjOBUv1tHCZMJbMvrB-251" value="&lt;font style=&quot;font-size: 6px;&quot;&gt;I&lt;/font&gt;" style="rounded=0;whiteSpace=wrap;html=1;verticalAlign=middle;fillColor=#f5f5f5;fontColor=#333333;strokeColor=#666666;strokeWidth=0.5;direction=south;align=center;fontSize=6;" parent="_7XjOBUv1tHCZMJbMvrB-236" vertex="1">
          <mxGeometry x="100" y="30" width="30" height="30" as="geometry" />
        </mxCell>
        <mxCell id="_7XjOBUv1tHCZMJbMvrB-252" value="&lt;font style=&quot;font-size: 6px;&quot;&gt;A&lt;/font&gt;" style="rounded=0;whiteSpace=wrap;html=1;verticalAlign=middle;fillColor=#f5f5f5;fontColor=#333333;strokeColor=#666666;strokeWidth=0.5;direction=south;align=center;fontSize=6;" parent="_7XjOBUv1tHCZMJbMvrB-236" vertex="1">
          <mxGeometry x="130" y="30" width="30" height="30" as="geometry" />
        </mxCell>
        <mxCell id="_7XjOBUv1tHCZMJbMvrB-253" value="&lt;font style=&quot;font-size: 6px;&quot;&gt;T&lt;/font&gt;" style="rounded=0;whiteSpace=wrap;html=1;verticalAlign=middle;fillColor=#f5f5f5;fontColor=#333333;strokeColor=#666666;strokeWidth=0.5;direction=south;align=center;fontSize=6;" parent="_7XjOBUv1tHCZMJbMvrB-236" vertex="1">
          <mxGeometry x="160" y="30" width="30" height="30" as="geometry" />
        </mxCell>
        <mxCell id="_7XjOBUv1tHCZMJbMvrB-254" value="&lt;font style=&quot;font-size: 6px;&quot;&gt;V&lt;/font&gt;" style="rounded=0;whiteSpace=wrap;html=1;verticalAlign=middle;fillColor=#f5f5f5;fontColor=#333333;strokeColor=#666666;strokeWidth=0.5;direction=south;align=center;fontSize=6;" parent="_7XjOBUv1tHCZMJbMvrB-236" vertex="1">
          <mxGeometry x="100" y="60" width="30" height="30" as="geometry" />
        </mxCell>
        <mxCell id="_7XjOBUv1tHCZMJbMvrB-255" value="LO" style="rounded=0;whiteSpace=wrap;html=1;verticalAlign=middle;fillColor=#f5f5f5;fontColor=#333333;strokeColor=#666666;strokeWidth=0.5;direction=south;align=center;fontSize=6;" parent="_7XjOBUv1tHCZMJbMvrB-236" vertex="1">
          <mxGeometry x="130" y="60" width="30" height="30" as="geometry" />
        </mxCell>
        <mxCell id="_7XjOBUv1tHCZMJbMvrB-256" value="&lt;font style=&quot;font-size: 6px;&quot;&gt;LA&lt;/font&gt;" style="rounded=0;whiteSpace=wrap;html=1;verticalAlign=middle;fillColor=#f5f5f5;fontColor=#333333;strokeColor=#666666;strokeWidth=0.5;direction=south;fontSize=6;" parent="_7XjOBUv1tHCZMJbMvrB-236" vertex="1">
          <mxGeometry x="190" y="60" width="30" height="30" as="geometry" />
        </mxCell>
        <mxCell id="_7XjOBUv1tHCZMJbMvrB-257" value="&lt;font style=&quot;font-size: 6px;&quot;&gt;D&lt;br style=&quot;font-size: 6px;&quot;&gt;&lt;/font&gt;" style="rounded=0;whiteSpace=wrap;html=1;verticalAlign=middle;fillColor=#f5f5f5;fontColor=#333333;strokeColor=#666666;strokeWidth=0.5;direction=south;align=center;fontSize=6;" parent="_7XjOBUv1tHCZMJbMvrB-236" vertex="1">
          <mxGeometry x="100" y="90" width="30" height="30" as="geometry" />
        </mxCell>
        <mxCell id="_7XjOBUv1tHCZMJbMvrB-258" value="&lt;font style=&quot;font-size: 6px;&quot;&gt;W&lt;/font&gt;" style="rounded=0;whiteSpace=wrap;html=1;verticalAlign=middle;fillColor=#f5f5f5;fontColor=#333333;strokeColor=#666666;strokeWidth=0.5;direction=south;align=center;fontSize=6;" parent="_7XjOBUv1tHCZMJbMvrB-236" vertex="1">
          <mxGeometry x="130" y="90" width="30" height="30" as="geometry" />
        </mxCell>
        <mxCell id="_7XjOBUv1tHCZMJbMvrB-259" value="&lt;font style=&quot;font-size: 6px;&quot;&gt;C&lt;/font&gt;" style="rounded=0;whiteSpace=wrap;html=1;verticalAlign=middle;fillColor=#f5f5f5;fontColor=#333333;strokeColor=#666666;strokeWidth=0.5;direction=south;align=center;fontSize=6;" parent="_7XjOBUv1tHCZMJbMvrB-236" vertex="1">
          <mxGeometry x="160" y="90" width="30" height="30" as="geometry" />
        </mxCell>
        <mxCell id="_7XjOBUv1tHCZMJbMvrB-260" value="&lt;font style=&quot;font-size: 6px;&quot;&gt;S&lt;/font&gt;" style="rounded=0;whiteSpace=wrap;html=1;verticalAlign=middle;fillColor=#f5f5f5;fontColor=#333333;strokeColor=#666666;strokeWidth=0.5;direction=south;fontSize=6;" parent="_7XjOBUv1tHCZMJbMvrB-236" vertex="1">
          <mxGeometry x="190" y="90" width="30" height="30" as="geometry" />
        </mxCell>
        <mxCell id="_7XjOBUv1tHCZMJbMvrB-261" value="&lt;font style=&quot;font-size: 6px;&quot;&gt;SP&lt;/font&gt;" style="rounded=0;whiteSpace=wrap;html=1;verticalAlign=middle;fillColor=#f5f5f5;fontColor=#333333;strokeColor=#666666;strokeWidth=0.5;direction=south;align=center;fontSize=6;" parent="_7XjOBUv1tHCZMJbMvrB-236" vertex="1">
          <mxGeometry x="100" y="120" width="30" height="30" as="geometry" />
        </mxCell>
        <mxCell id="_7XjOBUv1tHCZMJbMvrB-262" value="&lt;font style=&quot;font-size: 6px;&quot;&gt;SU&lt;/font&gt;" style="rounded=0;whiteSpace=wrap;html=1;verticalAlign=middle;fillColor=#f5f5f5;fontColor=#333333;strokeColor=#666666;strokeWidth=0.5;direction=south;align=center;fontSize=6;" parent="_7XjOBUv1tHCZMJbMvrB-236" vertex="1">
          <mxGeometry x="130" y="120" width="30" height="30" as="geometry" />
        </mxCell>
        <mxCell id="_7XjOBUv1tHCZMJbMvrB-263" value="&lt;font style=&quot;font-size: 6px;&quot;&gt;A&lt;/font&gt;" style="rounded=0;whiteSpace=wrap;html=1;verticalAlign=middle;fillColor=#f5f5f5;fontColor=#333333;strokeColor=#666666;strokeWidth=0.5;direction=south;align=center;fontSize=6;" parent="_7XjOBUv1tHCZMJbMvrB-236" vertex="1">
          <mxGeometry x="100" y="150" width="30" height="30" as="geometry" />
        </mxCell>
        <mxCell id="_7XjOBUv1tHCZMJbMvrB-264" value="&lt;font style=&quot;font-size: 6px;&quot;&gt;C&lt;/font&gt;" style="rounded=0;whiteSpace=wrap;html=1;verticalAlign=middle;fillColor=#f5f5f5;fontColor=#333333;strokeColor=#666666;strokeWidth=0.5;direction=south;align=center;fontSize=6;" parent="_7XjOBUv1tHCZMJbMvrB-236" vertex="1">
          <mxGeometry x="130" y="150" width="30" height="30" as="geometry" />
        </mxCell>
        <mxCell id="_7XjOBUv1tHCZMJbMvrB-265" value="&lt;font style=&quot;font-size: 6px;&quot;&gt;S&lt;/font&gt;" style="rounded=0;whiteSpace=wrap;html=1;verticalAlign=middle;fillColor=#f5f5f5;fontColor=#333333;strokeColor=#666666;strokeWidth=0.5;direction=south;align=center;fontSize=6;" parent="_7XjOBUv1tHCZMJbMvrB-236" vertex="1">
          <mxGeometry x="160" y="150" width="30" height="30" as="geometry" />
        </mxCell>
        <mxCell id="_7XjOBUv1tHCZMJbMvrB-266" value="&lt;font style=&quot;font-size: 6px;&quot;&gt;R&lt;/font&gt;" style="rounded=0;whiteSpace=wrap;html=1;verticalAlign=middle;fillColor=#f5f5f5;fontColor=#333333;strokeColor=#666666;strokeWidth=0.5;direction=south;align=center;fontSize=6;" parent="_7XjOBUv1tHCZMJbMvrB-236" vertex="1">
          <mxGeometry x="160" y="60" width="30" height="30" as="geometry" />
        </mxCell>
        <mxCell id="_7XjOBUv1tHCZMJbMvrB-356" style="edgeStyle=orthogonalEdgeStyle;rounded=0;orthogonalLoop=1;jettySize=auto;html=1;exitX=0.5;exitY=1;exitDx=0;exitDy=0;" parent="_7XjOBUv1tHCZMJbMvrB-236" source="_7XjOBUv1tHCZMJbMvrB-242" target="_7XjOBUv1tHCZMJbMvrB-242" edge="1">
          <mxGeometry relative="1" as="geometry" />
        </mxCell>
        <mxCell id="_7XjOBUv1tHCZMJbMvrB-334" value="" style="shape=image;verticalLabelPosition=bottom;labelBackgroundColor=default;verticalAlign=top;aspect=fixed;imageAspect=0;image=data:image/png,iVBORw0KGgoAAAANSUhEUgAAASwAAAEsCAYAAAB5fY51AAAAOXRFWHRTb2Z0d2FyZQBNYXRwbG90bGliIHZlcnNpb24zLjUuMiwgaHR0cHM6Ly9tYXRwbG90bGliLm9yZy8qNh9FAAAACXBIWXMAAA9hAAAPYQGoP6dpAAAEp0lEQVR4nO3WsU1bARiF0RC5QqKhYQJcuaFkEwoqz8QILj0HEkN4BDMAQnpZ4FnC1Z8vOWeCW326N8uy/AIo+D09AOCnBAvIECwgQ7CADMECMgQLyBAsIEOwgAzBAjIEC8gQLCBDsIAMwQIyBAvIECwgQ7CADMECMgQLyBAsIEOwgAzBAjIEC8gQLCBDsIAMwQIyBAvIECwgQ7CADMECMgQLyBAsIEOwgAzBAjIEC8gQLCBjMz2g6O3tbZnesOZ4PE5PuOj9/X16wqq7u7vpCRedz+eb6Q1/Gw8LyBAsIEOwgAzBAjIEC8gQLCBDsIAMwQIyBAvIECwgQ7CADMECMgQLyBAsIEOwgAzBAjIEC8gQLCBDsIAMwQIyBAvIECwgQ7CADMECMgQLyBAsIEOwgAzBAjIEC8gQLCBDsIAMwQIyBAvIECwgQ7CADMECMgQLyNhMDyi6v7+fnrDq+/t7esJFX19f0xNW7ff76QlcwcMCMgQLyBAsIEOwgAzBAjIEC8gQLCBDsIAMwQIyBAvIECwgQ7CADMECMgQLyBAsIEOwgAzBAjIEC8gQLCBDsIAMwQIyBAvIECwgQ7CADMECMgQLyBAsIEOwgAzBAjIEC8gQLCBDsIAMwQIyBAvIECwgQ7CADMECMgQLyNhMDyj6/PycnrBqu91OT7jo5eVlesKq5+fn6QlcwcMCMgQLyBAsIEOwgAzBAjIEC8gQLCBDsIAMwQIyBAvIECwgQ7CADMECMgQLyBAsIEOwgAzBAjIEC8gQLCBDsIAMwQIyBAvIECwgQ7CADMECMgQLyBAsIEOwgAzBAjIEC8gQLCBDsIAMwQIyBAvIECwgQ7CADMECMjbTA4oOh8P0hFUfHx/TEy66vb2dnrDq4eFhegJX8LCADMECMgQLyBAsIEOwgAzBAjIEC8gQLCBDsIAMwQIyBAvIECwgQ7CADMECMgQLyBAsIEOwgAzBAjIEC8gQLCBDsIAMwQIyBAvIECwgQ7CADMECMgQLyBAsIEOwgAzBAjIEC8gQLCBDsIAMwQIyBAvIECwgQ7CADMECMjbTA4peX1+nJ6x6enqannDR6XSanrDq8fFxegJX8LCADMECMgQLyBAsIEOwgAzBAjIEC8gQLCBDsIAMwQIyBAvIECwgQ7CADMECMgQLyBAsIEOwgAzBAjIEC8gQLCBDsIAMwQIyBAvIECwgQ7CADMECMgQLyBAsIEOwgAzBAjIEC8gQLCBDsIAMwQIyBAvIECwgQ7CAjM30AP4Pu91uegL/AA8LyBAsIEOwgAzBAjIEC8gQLCBDsIAMwQIyBAvIECwgQ7CADMECMgQLyBAsIEOwgAzBAjIEC8gQLCBDsIAMwQIyBAvIECwgQ7CADMECMgQLyBAsIEOwgAzBAjIEC8gQLCBDsIAMwQIyBAvIECwgQ7CADMECMgQLyBAsIONmWZbpDQA/4mEBGYIFZAgWkCFYQIZgARmCBWQIFpAhWECGYAEZggVkCBaQIVhAhmABGYIFZAgWkCFYQIZgARmCBWQIFpAhWECGYAEZggVkCBaQIVhAhmABGYIFZAgWkCFYQIZgARmCBWQIFpAhWEDGH7XZKGW526wKAAAAAElFTkSuQmCC;" parent="1" vertex="1">
          <mxGeometry x="486" y="82" width="234" height="234" as="geometry" />
        </mxCell>
        <mxCell id="_7XjOBUv1tHCZMJbMvrB-335" value="" style="shape=image;verticalLabelPosition=bottom;labelBackgroundColor=default;verticalAlign=top;imageAspect=0;image=data:image/png,iVBORw0KGgoAAAANSUhEUgAAAGsAAABrCAYAAABwv3wMAAAABHNCSVQICAgIfAhkiAAAAYdJREFUeF7t1cEJwEAMxMBLyNdtu+1cHQNyBUJi8bO7/+kIA9/MEKBBnvMmwTFQLKdVy4JaFatYkgGItZ9VLMgAhNqyigUZgFBbVrEgAxBqyyoWZABCbVnFggxAqC2rWJABCLVlFQsyAKG2rGJBBiDUllUsyACE2rKKBRmAUFtWsSADEGrLKhZkAEJtWcWCDECoLatYkAEItWUVCzIAobasYkEGINSWVSzIAITasooFGYBQW1axIAMQassqFmQAQm1ZxYIMQKgtq1iQAQi1ZRULMgChtqxiQQYg1JZVLMgAhNqyigUZgFBbVrEgAxBqyyoWZABCbVnFggxAqC2rWJABCLVlFQsyAKG2rGJBBiDUllUsyACE2rKKBRmAUFtWsSADEGrLKhZkAEJtWcWCDECoLatYkAEItWUVCzIAobasYkEGINSWVSzIAITasooFGYBQW1axIAMQassqFmQAQm1ZxYIMQKgtq1iQAQi1ZRULMgChtqxiQQYg1JZVLMgAhNqyigUZgFAvX6MDkIqb1J4AAAAASUVORK5CYII=;" parent="1" vertex="1">
          <mxGeometry x="636" y="110" width="30.2" height="29.8" as="geometry" />
        </mxCell>
        <mxCell id="_7XjOBUv1tHCZMJbMvrB-336" value="" style="shape=image;verticalLabelPosition=bottom;labelBackgroundColor=default;verticalAlign=top;imageAspect=0;image=data:image/png,iVBORw0KGgoAAAANSUhEUgAAAGsAAABrCAYAAABwv3wMAAAABHNCSVQICAgIfAhkiAAAAYdJREFUeF7t1cEJwEAMxMBLyNdtu+1cHQNyBUJi8bO7/+kIA9/MEKBBnvMmwTFQLKdVy4JaFatYkgGItZ9VLMgAhNqyigUZgFBbVrEgAxBqyyoWZABCbVnFggxAqC2rWJABCLVlFQsyAKG2rGJBBiDUllUsyACE2rKKBRmAUFtWsSADEGrLKhZkAEJtWcWCDECoLatYkAEItWUVCzIAobasYkEGINSWVSzIAITasooFGYBQW1axIAMQassqFmQAQm1ZxYIMQKgtq1iQAQi1ZRULMgChtqxiQQYg1JZVLMgAhNqyigUZgFBbVrEgAxBqyyoWZABCbVnFggxAqC2rWJABCLVlFQsyAKG2rGJBBiDUllUsyACE2rKKBRmAUFtWsSADEGrLKhZkAEJtWcWCDECoLatYkAEItWUVCzIAobasYkEGINSWVSzIAITasooFGYBQW1axIAMQassqFmQAQm1ZxYIMQKgtq1iQAQi1ZRULMgChtqxiQQYg1JZVLMgAhNqyigUZgFAvX6MDkIqb1J4AAAAASUVORK5CYII=;" parent="1" vertex="1">
          <mxGeometry x="546" y="110" width="29" height="30" as="geometry" />
        </mxCell>
        <mxCell id="_7XjOBUv1tHCZMJbMvrB-337" value="" style="shape=image;verticalLabelPosition=bottom;labelBackgroundColor=default;verticalAlign=top;imageAspect=0;image=data:image/png,iVBORw0KGgoAAAANSUhEUgAAAGsAAABrCAYAAABwv3wMAAAABHNCSVQICAgIfAhkiAAAAYdJREFUeF7t1cEJwEAMxMBLyNdtu+1cHQNyBUJi8bO7/+kIA9/MEKBBnvMmwTFQLKdVy4JaFatYkgGItZ9VLMgAhNqyigUZgFBbVrEgAxBqyyoWZABCbVnFggxAqC2rWJABCLVlFQsyAKG2rGJBBiDUllUsyACE2rKKBRmAUFtWsSADEGrLKhZkAEJtWcWCDECoLatYkAEItWUVCzIAobasYkEGINSWVSzIAITasooFGYBQW1axIAMQassqFmQAQm1ZxYIMQKgtq1iQAQi1ZRULMgChtqxiQQYg1JZVLMgAhNqyigUZgFBbVrEgAxBqyyoWZABCbVnFggxAqC2rWJABCLVlFQsyAKG2rGJBBiDUllUsyACE2rKKBRmAUFtWsSADEGrLKhZkAEJtWcWCDECoLatYkAEItWUVCzIAobasYkEGINSWVSzIAITasooFGYBQW1axIAMQassqFmQAQm1ZxYIMQKgtq1iQAQi1ZRULMgChtqxiQQYg1JZVLMgAhNqyigUZgFAvX6MDkIqb1J4AAAAASUVORK5CYII=;" parent="1" vertex="1">
          <mxGeometry x="546" y="110" width="29.7" height="60" as="geometry" />
        </mxCell>
        <mxCell id="_7XjOBUv1tHCZMJbMvrB-338" value="" style="shape=image;verticalLabelPosition=bottom;labelBackgroundColor=default;verticalAlign=top;imageAspect=0;image=data:image/png,iVBORw0KGgoAAAANSUhEUgAAAE8AAABICAYAAAC3Mag+AAAABHNCSVQICAgIfAhkiAAAAO1JREFUeF7t0rEJADEQA8H3w/Vfsg0uwZuO8k0GrZnZnz0J/E+V6ArAC0eABy8IhNTz4AWBkHoevCAQUs+DFwRC6nnwgkBIPQ9eEAip58ELAiH1PHhBIKSeBy8IhNTz4AWBkHoevCAQUs+DFwRC6nnwgkBIPQ9eEAip58ELAiH1PHhBIKSeBy8IhNTz4AWBkHoevCAQUs+DFwRC6nnwgkBIPQ9eEAip58ELAiH1PHhBIKSeBy8IhNTz4AWBkHoevCAQUs+DFwRC6nnwgkBIPQ9eEAip58ELAiH1PHhBIKSeBy8IhNTz4AWBkHpewDt3dwGe58lqLQAAAABJRU5ErkJggg==;" parent="1" vertex="1">
          <mxGeometry x="546" y="170" width="29.8" height="30" as="geometry" />
        </mxCell>
        <mxCell id="_7XjOBUv1tHCZMJbMvrB-339" value="" style="shape=image;verticalLabelPosition=bottom;labelBackgroundColor=default;verticalAlign=top;imageAspect=0;image=data:image/png,iVBORw0KGgoAAAANSUhEUgAAAHYAAABwCAYAAADL/oQMAAAABHNCSVQICAgIfAhkiAAAAZRJREFUeF7t0wENACAMxEDA6fyLgAQZzc1B2/2embtczsDJEQH6BoSNPoKwwkYNRLEsVtiogSiWxQobNRDFslhhowaiWBYrbNRAFMtihY0aiGJZrLBRA1EsixU2aiCKZbHCRg1EsSxW2KiBKJbFChs1EMWyWGGjBqJYFits1EAUy2KFjRqIYlmssFEDUSyLFTZqIIplscJGDUSxLFbYqIEolsUKGzUQxbJYYaMGolgWK2zUQBTLYoWNGohiWaywUQNRLIsVNmogimWxwkYNRLEsVtiogSiWxQobNRDFslhhowaiWBYrbNRAFMtihY0aiGJZrLBRA1EsixU2aiCKZbHCRg1EsSxW2KiBKJbFChs1EMWyWGGjBqJYFits1EAUy2KFjRqIYlmssFEDUSyLFTZqIIplscJGDUSxLFbYqIEolsUKGzUQxbJYYaMGolgWK2zUQBTLYoWNGohiWaywUQNRLIsVNmogimWxwkYNRLEsVtiogSiWxQobNRDFslhhowaiWBYrbNRAFMtihY0aiGJZbDTsA8y6AwKbURjPAAAAAElFTkSuQmCC;" parent="1" vertex="1">
          <mxGeometry x="635.5" y="260" width="30.5" height="30" as="geometry" />
        </mxCell>
        <mxCell id="_7XjOBUv1tHCZMJbMvrB-340" value="" style="shape=image;verticalLabelPosition=bottom;labelBackgroundColor=default;verticalAlign=top;imageAspect=0;image=data:image/png,iVBORw0KGgoAAAANSUhEUgAAAIYAAAB/CAYAAAAq5LpAAAAABHNCSVQICAgIfAhkiAAAAhVJREFUeF7t0rENACAQAzFgsd9/KujRjeCUKU/eM3OXKfAVOIooUAXAqCq+BQYEWQCMzOIEg4EsAEZmcYLBQBYAI7M4wWAgC4CRWZxgMJAFwMgsTjAYyAJgZBYnGAxkATAyixMMBrIAGJnFCQYDWQCMzOIEg4EsAEZmcYLBQBYAI7M4wWAgC4CRWZxgMJAFwMgsTjAYyAJgZBYnGAxkATAyixMMBrIAGJnFCQYDWQCMzOIEg4EsAEZmcYLBQBYAI7M4wWAgC4CRWZxgMJAFwMgsTjAYyAJgZBYnGAxkATAyixMMBrIAGJnFCQYDWQCMzOIEg4EsAEZmcYLBQBYAI7M4wWAgC4CRWZxgMJAFwMgsTjAYyAJgZBYnGAxkATAyixMMBrIAGJnFCQYDWQCMzOIEg4EsAEZmcYLBQBYAI7M4wWAgC4CRWZxgMJAFwMgsTjAYyAJgZBYnGAxkATAyixMMBrIAGJnFCQYDWQCMzOIEg4EsAEZmcYLBQBYAI7M4wWAgC4CRWZxgMJAFwMgsTjAYyAJgZBYnGAxkATAyixMMBrIAGJnFCQYDWQCMzOIEg4EsAEZmcYLBQBYAI7M4wWAgC4CRWZxgMJAFwMgsTjAYyAJgZBYnGAxkATAyixMMBrIAGJnFCQYDWQCMzOIEg4EsAEZmcYLBQBYAI7M4wWAgC4CRWZxgMJAFwMgsTjAYyAJgZBbnA1uLArry0MAyAAAAAElFTkSuQmCC;" parent="1" vertex="1">
          <mxGeometry x="635.5" y="170" width="30.9" height="29.8" as="geometry" />
        </mxCell>
        <mxCell id="_7XjOBUv1tHCZMJbMvrB-355" value="" style="endArrow=classic;html=1;rounded=0;" parent="1" edge="1">
          <mxGeometry width="50" height="50" relative="1" as="geometry">
            <mxPoint x="501" y="198.66" as="sourcePoint" />
            <mxPoint x="531" y="198.66" as="targetPoint" />
          </mxGeometry>
        </mxCell>
      </root>
    </mxGraphModel>
  </diagram>
</mxfile>
